<svg version="1.1" id="Layer_1" xmlns="http://www.w3.org/2000/svg" xmlns:xlink="http://www.w3.org/1999/xlink" x="0px" y="0px"
	 width="100%" viewBox="0 0 517 184" enable-background="new 0 0 517 184" xml:space="preserve">
<path fill="none" stroke="none" 
	d="
M397.000000,185.000000 
	C264.666718,185.000000 132.833435,185.000000 1.000106,185.000000 
	C1.000071,123.666733 1.000071,62.333473 1.000035,1.000155 
	C173.333206,1.000104 345.666412,1.000104 517.999756,1.000052 
	C517.999817,62.333179 517.999817,123.666359 517.999878,184.999771 
	C477.833344,185.000000 437.666656,185.000000 397.000000,185.000000 
M424.302948,21.967918 
	C422.831207,21.761610 421.359711,21.378063 419.887665,21.375662 
	C398.833801,21.341305 377.779755,21.342310 356.726013,21.404432 
	C355.506653,21.408030 354.289032,22.008585 352.165558,22.193214 
	C349.422211,22.239359 346.678894,22.285503 343.385620,21.722769 
	C342.738678,21.605165 342.091827,21.385204 341.444794,21.384714 
	C315.540710,21.365114 289.636566,21.352224 263.732605,21.404186 
	C262.511230,21.406633 261.291046,22.008299 259.165283,22.192907 
	C256.421997,22.239088 253.678726,22.285267 250.385498,21.722654 
	C249.738586,21.605087 249.091751,21.385204 248.444748,21.384706 
	C222.874069,21.365078 197.303329,21.352066 171.732742,21.404163 
	C170.511276,21.406652 169.291031,22.007679 167.158264,22.191559 
	C164.084122,22.237736 161.009995,22.283913 157.385300,21.721920 
	C156.738068,21.604582 156.090897,21.385027 155.443588,21.384598 
	C126.540771,21.365463 97.637909,21.353811 68.735168,21.404327 
	C67.512802,21.406466 66.291473,22.007162 64.258705,22.197899 
	C63.196590,22.355198 62.134472,22.512497 60.468590,22.324663 
	C60.015362,22.366123 59.562138,22.407583 58.271599,22.171328 
	C53.915638,23.082865 49.357887,23.453831 45.236034,24.992504 
	C15.530453,36.081467 1.131683,66.139442 10.454522,95.758400 
	C18.550438,121.479385 40.223503,135.694550 67.378685,135.697205 
	C178.774750,135.708069 290.170837,135.708115 401.566895,135.699936 
	C407.058594,135.699539 412.550323,135.584351 418.531555,136.074020 
	C420.266724,138.964600 422.001892,141.855179 424.071289,145.302551 
	C421.800873,145.468323 420.503204,145.602005 419.202393,145.651596 
	C411.852844,145.931763 406.970398,150.028778 406.408539,156.412552 
	C405.848511,162.775436 409.809845,167.504791 417.099548,169.190491 
	C428.280212,171.775955 439.546753,174.045090 450.615997,177.042419 
	C462.815918,180.345932 473.882599,179.208191 484.139099,171.337860 
	C488.207001,168.216339 492.861847,165.859879 497.248230,163.153122 
	C507.830078,156.623230 512.476624,143.034241 506.273071,132.258682 
	C497.246307,116.579048 487.027008,101.585945 478.009308,85.715263 
	C480.038666,74.884972 478.727234,64.587616 473.128143,54.215786 
	C469.304657,44.047325 462.063354,36.620934 453.208923,30.927969 
	C445.309784,25.849203 436.914276,21.427322 426.324921,22.188120 
	C425.912170,22.225838 425.499390,22.263556 424.302948,21.967918 
z"/>
<path fill="#FCC20D" opacity="1.000000" stroke="none" 
	d="
M61.072357,22.669796 
	C62.134472,22.512497 63.196590,22.355198 64.981575,22.516048 
	C66.362465,22.911377 67.020447,23.055777 67.678505,23.056067 
	C96.498711,23.068783 125.318932,23.078148 154.139084,23.038916 
	C155.404999,23.037191 156.670273,22.576822 157.935852,22.330091 
	C161.009995,22.283913 164.084122,22.237736 167.931366,22.513680 
	C195.515305,22.907055 222.326141,22.983000 249.137024,23.019367 
	C249.736176,23.020182 250.335953,22.570818 250.935440,22.331448 
	C253.678726,22.285267 256.421997,22.239088 259.934998,22.514713 
	C287.848846,22.907589 314.992950,22.983297 342.137115,23.019548 
	C342.736298,23.020350 343.336060,22.571005 343.935547,22.331646 
	C346.678894,22.285503 349.422211,22.239359 352.935364,22.514887 
	C355.692047,22.914452 357.678741,23.053566 359.665863,23.060844 
	C381.444580,23.140615 403.223419,23.199814 425.086945,23.601181 
	C427.823578,24.587774 430.475433,25.237789 433.540710,25.894192 
	C435.111511,25.938681 436.366821,25.695080 437.411255,26.058140 
	C448.807983,30.019718 458.731567,36.074524 465.700134,46.267300 
	C467.725159,49.229244 469.865265,52.112488 471.970947,55.435837 
	C472.100220,56.983898 471.787933,58.466434 472.389252,59.218262 
	C477.084442,65.088440 474.339233,72.260536 475.922516,78.669937 
	C476.664856,81.675255 475.275970,83.077759 471.638977,82.351479 
	C469.996155,82.023430 467.911102,83.910309 465.635986,84.855576 
	C464.425323,85.034050 463.307831,84.847183 462.834015,85.313873 
	C459.940918,88.163536 457.198242,88.145729 453.549530,86.305405 
	C450.509918,84.772301 444.479004,88.122124 443.090759,91.089066 
	C443.009216,90.996429 443.179443,91.176460 442.720215,91.117233 
	C439.820953,91.067314 437.380859,91.076614 434.600830,91.094650 
	C433.812592,91.039551 433.364319,90.975731 432.688599,90.649155 
	C429.076050,91.130028 425.690948,91.873642 422.105652,92.661247 
	C421.251282,91.239861 420.222595,89.169647 418.865692,87.343239 
	C415.720276,83.109367 412.416260,78.993347 409.072968,74.537636 
	C408.316925,73.826500 407.664429,73.407272 406.922424,72.622375 
	C402.767578,70.920883 398.598175,67.524147 394.507355,72.901711 
	C388.615997,75.394844 385.261414,86.103188 388.588562,91.617409 
	C393.507965,99.770576 398.735718,107.737251 403.791992,115.808487 
	C406.956512,120.859856 410.047272,125.957397 413.040161,130.821411 
	C410.225922,131.997009 408.134186,132.870804 405.573730,133.790894 
	C404.106476,133.859116 403.107941,133.900177 402.109406,133.900208 
	C293.886139,133.903427 185.662872,133.904221 77.439613,133.897095 
	C75.943222,133.897003 74.446831,133.795090 72.841599,133.384201 
	C68.845451,133.033234 64.958138,133.038757 60.641960,133.036621 
	C51.483551,132.373352 43.398010,129.708542 36.013447,125.038460 
	C19.337778,114.492592 11.022377,99.140053 9.953807,79.597656 
	C9.314150,67.899384 12.776374,57.169609 19.298397,47.906097 
	C27.850946,35.758553 38.683933,26.252605 55.167747,25.868980 
	C56.009716,25.271584 56.515629,24.659111 57.348129,24.025177 
	C58.110821,23.988619 58.546928,23.973518 59.141090,24.189447 
	C59.890213,23.836916 60.481285,23.253357 61.072357,22.669796 
M303.789429,62.495483 
	C303.457794,62.356461 303.126129,62.217442 302.395386,62.006744 
	C302.132843,61.896263 301.942108,61.711613 301.739288,60.803684 
	C301.191132,60.514729 300.643005,60.225777 299.822510,59.535213 
	C299.602661,59.282043 299.329132,59.118889 298.065277,59.018085 
	C294.908478,59.009476 291.741058,58.835857 288.597900,59.038513 
	C285.432983,59.242569 282.292175,59.820641 279.189087,60.108368 
	C279.189087,60.108368 279.204987,60.242794 278.613983,60.069057 
	C278.409698,60.048298 278.205414,60.027538 277.190247,60.002121 
	C276.109192,60.012333 275.028168,60.022545 273.488220,60.008888 
	C273.488220,60.008888 273.030273,59.970341 272.416992,59.398689 
	C264.785065,59.276134 257.148315,58.986217 249.526138,59.204178 
	C248.327194,59.238461 246.220276,61.547485 246.184998,62.849495 
	C245.910172,72.990341 245.836502,83.150131 246.233704,93.283173 
	C246.304520,95.089401 248.790878,98.258339 250.256668,98.314293 
	C259.289490,98.659050 268.726898,101.535774 277.072601,95.414963 
	C280.239594,100.335274 285.473694,100.619789 287.952759,95.947891 
	C287.952759,95.947891 288.028412,95.947647 288.782654,95.829147 
	C289.532990,91.892502 290.283356,87.955856 291.801727,84.022125 
	C292.896484,85.007172 293.991272,85.992226 295.038300,87.873009 
	C295.072601,90.190559 294.826599,92.554962 295.204346,94.815109 
	C295.831390,98.566605 299.263733,99.959244 304.328796,98.927521 
	C308.425110,98.093117 308.594208,94.387436 308.435974,91.771179 
	C308.106232,86.320114 306.716400,80.933182 305.827667,74.995605 
	C305.996033,74.688545 306.164429,74.381493 306.644409,74.138412 
	C306.644409,74.138412 306.962524,74.137276 307.459473,74.426537 
	C307.650787,72.603455 307.842102,70.780373 308.029541,68.310081 
	C308.014771,67.878868 308.000000,67.447655 308.339996,66.767181 
	C307.882446,66.479858 307.424896,66.192528 306.520782,65.904709 
	C306.520782,65.904709 306.077515,65.958649 305.608032,65.630814 
	C305.376495,65.114311 305.144958,64.597801 305.291168,63.799789 
	C304.858002,63.532570 304.424866,63.265350 304.001221,62.998844 
	C304.001221,62.998844 304.003784,63.008762 303.789429,62.495483 
M337.463257,67.214737 
	C337.311127,65.139572 337.158997,63.064407 336.712067,60.610336 
	C336.498535,60.370369 336.263184,60.154156 335.418823,59.366215 
	C327.961853,59.572899 320.504883,59.779583 312.738586,60.167858 
	C312.738586,60.167858 312.383789,60.220558 311.525879,60.203495 
	C311.029236,60.951691 310.107178,61.695881 310.100098,62.448696 
	C310.000122,73.067520 309.823608,83.695297 310.234222,94.298866 
	C310.296204,95.899155 313.140594,98.578651 314.862213,98.717216 
	C321.457123,99.247986 328.156067,99.334099 334.732483,98.707664 
	C336.597717,98.529976 338.563110,95.575073 339.696655,93.470512 
	C340.136444,92.654106 338.401001,90.666084 337.288391,89.173203 
	C337.288391,89.173203 336.961975,88.998802 336.404907,88.391441 
	C333.605804,88.255074 330.781372,88.297623 328.018433,87.906013 
	C326.659424,87.713402 325.414276,86.717010 324.117615,86.084366 
	C325.349823,85.383492 326.511688,84.333740 327.831573,84.067665 
	C329.586823,83.713814 331.512512,84.212440 333.271698,83.868134 
	C334.223602,83.681808 334.981537,82.504631 335.961792,81.878487 
	C335.961792,81.878487 335.799896,81.825714 336.603333,81.813072 
	C338.723511,79.219131 339.059814,76.669182 336.196136,74.285660 
	C336.196136,74.285660 335.999634,74.151154 335.585358,73.484291 
	C331.927032,72.725212 328.268738,71.966125 324.610413,71.207039 
	C324.622589,70.796761 324.634766,70.386475 324.646942,69.976189 
	C327.166626,69.976189 329.714783,70.200706 332.194489,69.885773 
	C333.524811,69.716812 334.737305,68.620453 336.054291,67.531487 
	C336.054291,67.531487 336.115143,67.121704 336.558655,67.072617 
	C336.558655,67.072617 336.980835,66.926491 337.463257,67.214737 
M89.312080,60.276890 
	C88.981232,60.311623 88.655350,60.285141 87.558807,60.173317 
	C86.356567,62.459301 85.154335,64.745285 83.335571,66.695374 
	C81.864052,65.485657 80.392525,64.275932 79.005882,63.015087 
	C79.005882,63.015087 78.936142,63.086208 78.925949,62.327583 
	C74.349304,56.957626 59.896847,57.392860 54.988701,63.306347 
	C49.550819,69.858063 49.413677,77.183266 51.230793,85.376572 
	C53.622986,96.162888 63.740810,102.814262 73.998459,98.596558 
	C76.477127,97.577400 78.064072,94.389549 80.223495,91.927940 
	C80.223495,91.927940 80.480858,91.744629 81.139191,91.777679 
	C81.724220,91.501877 82.309250,91.226074 83.503441,91.206535 
	C84.328651,91.476448 85.153862,91.746361 85.984848,92.739357 
	C86.287605,93.840599 86.590355,94.941849 86.751175,96.656960 
	C86.751099,96.972771 86.748772,97.565430 86.751259,97.565453 
	C94.471725,97.628113 102.192505,97.652596 109.913292,97.656044 
	C109.966995,97.656075 110.020828,97.365128 110.492622,97.056725 
	C110.492622,97.056725 110.928268,96.964714 111.852089,96.989586 
	C113.411659,96.916527 114.971230,96.843468 116.791672,96.693649 
	C116.791672,96.693649 117.027100,96.829765 117.110893,97.627480 
	C119.614540,99.471825 122.042847,100.490509 124.604340,96.569756 
	C124.904747,95.489861 125.205147,94.409958 125.941414,93.182732 
	C125.941414,93.182732 126.379524,93.034286 126.672340,93.298706 
	C126.846062,93.503197 126.965027,93.735710 127.074158,94.568497 
	C127.495491,94.876122 127.916832,95.183754 128.338165,95.491379 
	C128.226059,94.994484 128.113937,94.497589 128.002487,93.252197 
	C128.004669,92.503700 128.006851,91.755203 128.817337,91.002274 
	C129.898819,90.990440 130.980286,90.978607 132.576477,91.412552 
	C134.574326,96.341858 138.171844,98.669662 143.541214,99.113976 
	C150.114822,99.657959 155.929810,98.398903 161.744980,93.998474 
	C162.820175,94.000366 163.895370,94.002258 165.005051,94.732452 
	C166.009323,95.845451 167.013596,96.958450 168.256470,98.493401 
	C168.476379,98.752975 168.754318,98.909904 169.924728,98.943138 
	C180.547501,100.364441 177.148956,91.522255 178.665359,85.068863 
	C180.258850,87.605881 181.427368,88.843346 181.888641,90.304131 
	C184.447723,98.408119 185.526184,99.275780 193.531616,98.938828 
	C198.744629,98.719406 200.218323,95.946938 197.598999,91.378609 
	C195.303360,87.374825 192.623291,83.506783 190.990372,79.242813 
	C190.153976,77.058762 190.709656,73.935081 191.607468,71.611328 
	C192.452972,69.422951 194.837677,67.880035 196.058487,65.771370 
	C197.240677,63.729378 199.836288,61.014740 195.873062,59.244705 
	C191.144745,57.132965 183.735168,59.588314 180.400604,64.422768 
	C176.735641,57.697479 171.127655,57.948853 164.422226,59.717972 
	C161.920792,59.493206 159.419357,59.268444 156.089661,59.041893 
	C150.914719,59.041573 145.732224,58.869762 140.567322,59.097260 
	C136.699524,59.267616 132.840912,63.684570 133.706848,66.802872 
	C133.599625,66.941353 133.492386,67.079842 132.680664,67.117645 
	C131.824158,67.438148 130.967651,67.758652 129.343491,67.895607 
	C128.896240,66.602562 128.531677,65.272644 127.976448,64.027756 
	C127.504890,62.970482 126.813309,62.011337 125.914001,60.262691 
	C122.936409,60.190533 119.958817,60.118378 116.630913,60.334885 
	C116.407173,60.539635 116.200562,60.760418 115.308998,61.085285 
	C113.328674,62.707916 113.228539,64.075760 115.963936,65.996101 
	C115.913948,72.978264 115.863953,79.960419 115.000137,87.000282 
	C109.707298,87.301773 104.414452,87.603264 99.046547,86.989792 
	C99.036217,79.562416 99.168434,72.129860 98.898613,64.711929 
	C98.842796,63.177223 97.292038,61.696896 96.350555,60.435276 
	C96.350555,60.435276 96.101173,60.495155 95.271248,60.101208 
	C93.448967,60.162670 91.626678,60.224133 89.312080,60.276890 
M359.577911,83.178772 
	C359.489532,83.288078 359.310364,83.475708 359.326721,83.494675 
	C359.503052,83.699020 359.710144,83.876823 359.915009,84.947281 
	C362.019318,88.412712 374.765533,88.453430 376.880005,84.422943 
	C376.524506,83.970329 376.169037,83.517715 375.406586,82.344711 
	C370.254364,82.555786 365.102142,82.766861 359.577911,83.178772 
M231.123215,61.082432 
	C230.434418,63.204865 229.922424,65.408279 228.999466,67.423462 
	C228.293930,68.963905 227.068466,70.266212 226.074310,71.674438 
	C225.383545,70.219635 224.541016,68.815277 224.036850,67.298454 
	C223.240829,64.903580 222.671921,62.433224 221.421402,59.418522 
	C219.188538,59.279057 216.946671,59.222206 214.724976,58.980240 
	C211.603821,58.640312 210.725571,60.254387 210.227707,63.139091 
	C209.487122,64.681297 208.148178,66.207466 208.106323,67.768417 
	C207.889511,75.855247 207.835953,83.957283 208.139954,92.038437 
	C208.203491,93.727585 210.012695,95.351074 211.411835,97.669281 
	C219.377335,101.467827 223.936157,98.751648 223.963501,90.190704 
	C223.965622,89.524521 223.763824,88.771301 224.006195,88.209175 
	C224.627121,86.768997 225.445129,85.413788 226.184341,84.024605 
	C227.164581,85.190613 228.444931,86.218460 229.059265,87.552910 
	C230.157944,89.939453 230.855209,92.510796 231.921616,95.507469 
	C231.953842,95.684616 231.986053,95.861771 232.081573,96.805962 
	C234.722992,97.461494 238.029709,99.384544 239.830795,98.439156 
	C241.899918,97.353096 243.624329,93.782524 243.769806,91.194016 
	C244.251709,82.619072 244.153839,73.992630 243.816330,65.404106 
	C243.733978,63.308544 242.159943,59.786251 240.793289,59.536331 
	C237.965515,59.019222 234.816223,60.260307 231.123215,61.082432 
M403.617889,48.848335 
	C403.671539,46.310577 403.861481,43.329720 400.409637,43.218269 
	C396.655365,43.097057 396.679138,46.311512 396.621796,48.971481 
	C396.550476,52.280598 396.360931,55.643215 396.866058,58.882351 
	C397.081543,60.264114 398.925781,61.391872 400.029877,62.635067 
	C401.217590,61.322796 403.149872,60.153103 403.434296,58.667839 
	C403.985382,55.790150 403.609253,52.734879 403.617889,48.848335 
M370.223724,55.598881 
	C370.004089,56.524303 369.281647,57.909603 369.642456,58.304070 
	C373.296265,62.298828 377.057831,66.205666 381.006531,69.905113 
	C381.441345,70.312454 383.623383,69.598297 384.284515,68.809029 
	C384.930359,68.038055 385.242462,65.992744 384.706940,65.389748 
	C381.423218,61.692455 377.945770,58.149075 374.297607,54.811554 
	C373.693085,54.258537 371.932129,54.969627 370.223724,55.598881 
M416.314178,69.329010 
	C417.968109,69.156021 420.102783,69.575294 421.184418,68.697273 
	C424.239838,66.216942 427.114746,63.399940 429.525085,60.299194 
	C430.406982,59.164715 429.782867,56.859497 429.845795,55.088364 
	C428.204895,55.217171 426.031921,54.724377 425.021301,55.589497 
	C421.782257,58.362106 418.837311,61.523232 416.092682,64.797478 
	C415.392273,65.632988 415.852631,67.441536 416.314178,69.329010 
M372.548615,108.099876 
	C370.687653,109.917191 367.766174,111.712227 370.429291,114.612892 
	C373.071167,117.490486 375.169769,114.938866 377.071259,113.065979 
	C379.440491,110.732399 382.016663,108.545319 384.001282,105.915932 
	C384.803131,104.853584 384.277069,102.788979 384.355316,101.180481 
	C382.709564,101.211143 380.626068,100.617332 379.508087,101.400955 
	C377.092682,103.093971 375.172516,105.493538 372.548615,108.099876 
z"/>
<path fill="#434342" opacity="1.000000" stroke="none" 
	d="
M477.316223,86.300110 
	C487.027008,101.585945 497.246307,116.579048 506.273071,132.258682 
	C512.476624,143.034241 507.830078,156.623230 497.248230,163.153122 
	C492.861847,165.859879 488.207001,168.216339 484.139099,171.337860 
	C473.882599,179.208191 462.815918,180.345932 450.615997,177.042419 
	C439.546753,174.045090 428.280212,171.775955 417.099548,169.190491 
	C409.809845,167.504791 405.848511,162.775436 406.408539,156.412552 
	C406.970398,150.028778 411.852844,145.931763 419.202393,145.651596 
	C420.503204,145.602005 421.800873,145.468323 424.071289,145.302551 
	C422.001892,141.855179 420.266724,138.964600 418.294250,135.550781 
	C417.987274,134.699432 417.917572,134.371338 418.129272,133.867828 
	C417.019714,128.512283 415.178925,123.632851 409.970398,121.013885 
	C409.999237,121.003632 409.971313,121.058144 409.994965,120.665474 
	C407.742432,115.773682 405.628754,111.180275 403.102814,106.826057 
	C402.207153,105.282150 400.307770,104.320549 398.881683,103.049698 
	C398.896729,103.006294 398.910858,103.097054 398.949768,102.684433 
	C396.457886,97.472412 393.840820,92.715446 391.446838,87.848740 
	C390.690308,86.310806 389.616394,83.856201 390.268921,82.898933 
	C392.233673,80.016556 394.544373,76.658646 397.531830,75.374596 
	C400.860229,73.944000 405.148743,74.342842 407.725769,78.238075 
	C409.863556,81.469337 411.879303,84.795021 414.213898,87.878418 
	C416.341675,90.688705 418.825378,93.229546 421.160706,95.867462 
	C421.169220,95.845787 421.207184,95.817848 421.191132,96.181488 
	C424.298553,100.398705 426.361237,95.974174 427.992950,94.998665 
	C431.564850,92.863213 434.236267,92.374901 437.995300,94.525681 
	C439.566101,95.424416 443.244659,94.932564 444.512695,93.643967 
	C448.579437,89.511360 452.401794,88.759293 457.270966,92.037964 
	C459.696198,93.670967 461.799438,93.385315 461.623474,89.634995 
	C461.683899,89.649422 461.775879,89.733009 462.139709,89.800919 
	C463.292328,88.859596 464.081177,87.850357 464.901825,86.839836 
	C464.933624,86.838547 464.884857,86.879387 465.343628,86.928452 
	C469.181946,86.726166 472.561523,86.474808 476.171600,86.204979 
	C476.402100,86.186516 476.852081,86.300133 476.852081,86.300133 
	C476.852081,86.300133 477.316193,86.300117 477.316223,86.300110 
M501.765137,146.729904 
	C502.879120,141.214233 501.637726,136.279007 498.620941,131.526611 
	C491.041473,119.586647 483.639923,107.533264 476.220428,95.492477 
	C474.183167,92.186325 471.639923,89.767311 467.693237,91.947159 
	C464.033325,93.968620 464.512787,97.161057 466.012848,100.641266 
	C466.517456,101.811935 465.420837,103.672775 465.056061,105.218178 
	C463.641296,104.767921 461.756104,104.735794 460.908112,103.781761 
	C459.051086,101.692513 458.119110,98.658676 456.045349,96.923897 
	C454.443665,95.584030 451.472534,94.830696 449.503021,95.338852 
	C448.118073,95.696175 446.796631,98.534576 446.558289,100.406601 
	C446.361298,101.953644 448.085968,103.651749 448.418335,105.386528 
	C448.739990,107.065765 448.371429,108.877235 448.306000,110.630630 
	C446.538910,109.966209 444.262329,109.772491 443.117462,108.533234 
	C441.119171,106.370171 439.844543,103.546074 438.216675,101.031326 
	C436.253235,97.998161 433.688782,96.470917 430.249329,98.618820 
	C426.897736,100.711861 426.835022,103.650894 428.695770,106.828003 
	C429.536621,108.263657 430.874542,109.570770 431.199707,111.103233 
	C431.576752,112.880379 431.088928,114.841026 430.976562,116.722031 
	C429.234192,115.899803 426.883789,115.531929 425.865234,114.168839 
	C422.987244,110.317307 420.659149,106.055359 418.107697,101.959290 
	C413.885529,95.181137 409.682373,88.390953 405.422546,81.636543 
	C403.345001,78.342438 399.953522,77.900864 397.275146,79.814117 
	C395.045898,81.406509 393.269043,83.608894 395.869141,87.605476 
	C408.387177,106.846664 420.322174,126.467949 432.402588,145.992386 
	C434.923157,150.066162 433.784546,152.130264 428.986420,152.419785 
	C425.663483,152.620270 422.327850,152.667511 418.997650,152.673706 
	C416.059265,152.679169 413.448486,153.407852 413.050629,156.685303 
	C412.618805,160.241882 414.752075,162.136627 418.146637,162.911392 
	C431.123566,165.873215 444.048950,169.071426 457.063232,171.855850 
	C468.658295,174.336624 495.130127,160.999756 500.434998,150.308197 
	C500.877411,149.416519 501.175018,148.452942 501.765137,146.729904 
z"/>
<path fill="#F6D158" opacity="1.000000" stroke="none" 
	d="
M417.847900,134.043228 
	C417.917572,134.371338 417.987274,134.699432 418.049500,135.275085 
	C412.550323,135.584351 407.058594,135.699539 401.566895,135.699936 
	C290.170837,135.708115 178.774750,135.708069 67.378685,135.697205 
	C40.223503,135.694550 18.550438,121.479385 10.454522,95.758400 
	C1.131683,66.139442 15.530453,36.081467 45.236034,24.992504 
	C49.357887,23.453831 53.915638,23.082865 58.677803,22.561483 
	C59.050350,23.287231 59.016689,23.622826 58.983032,23.958418 
	C58.546928,23.973518 58.110821,23.988619 57.027649,24.042419 
	C55.864285,24.672049 55.347988,25.262978 54.831688,25.853905 
	C38.683933,26.252605 27.850946,35.758553 19.298397,47.906097 
	C12.776374,57.169609 9.314150,67.899384 9.953807,79.597656 
	C11.022377,99.140053 19.337778,114.492592 36.013447,125.038460 
	C43.398010,129.708542 51.483551,132.373352 60.937187,133.304382 
	C65.424332,133.633408 69.187386,133.687057 72.950439,133.740692 
	C74.446831,133.795090 75.943222,133.897003 77.439613,133.897095 
	C185.662872,133.904221 293.886139,133.903427 402.109406,133.900208 
	C403.107941,133.900177 404.106476,133.859116 406.005798,133.851227 
	C410.006378,133.512558 413.106171,133.159851 416.379517,133.004883 
	C416.984680,133.482803 417.416290,133.763016 417.847900,134.043228 
z"/>
<path fill="#F6D158" opacity="1.000000" stroke="none" 
	d="
M157.660583,22.026007 
	C156.670273,22.576822 155.404999,23.037191 154.139084,23.038916 
	C125.318932,23.078148 96.498711,23.068783 67.678505,23.056067 
	C67.020447,23.055777 66.362465,22.911377 65.387054,22.581606 
	C66.291473,22.007162 67.512802,21.406466 68.735168,21.404327 
	C97.637909,21.353811 126.540771,21.365463 155.443588,21.384598 
	C156.090897,21.385027 156.738068,21.604582 157.660583,22.026007 
z"/>
<path fill="#F6D158" opacity="1.000000" stroke="none" 
	d="
M343.660583,22.027206 
	C343.336060,22.571005 342.736298,23.020350 342.137115,23.019548 
	C314.992950,22.983297 287.848846,22.907589 260.387512,22.583710 
	C261.291046,22.008299 262.511230,21.406633 263.732605,21.404186 
	C289.636566,21.352224 315.540710,21.365114 341.444794,21.384714 
	C342.091827,21.385204 342.738678,21.605165 343.660583,22.027206 
z"/>
<path fill="#F6D158" opacity="1.000000" stroke="none" 
	d="
M250.660461,22.027050 
	C250.335953,22.570818 249.736176,23.020182 249.137024,23.019367 
	C222.326141,22.983000 195.515305,22.907055 168.387329,22.582886 
	C169.291031,22.007679 170.511276,21.406652 171.732742,21.404163 
	C197.303329,21.352066 222.874069,21.365078 248.444748,21.384706 
	C249.091751,21.385204 249.738586,21.605087 250.660461,22.027050 
z"/>
<path fill="#F6D158" opacity="1.000000" stroke="none" 
	d="
M471.952637,55.031807 
	C469.865265,52.112488 467.725159,49.229244 465.700134,46.267300 
	C458.731567,36.074524 448.807983,30.019718 437.411255,26.058140 
	C436.366821,25.695080 435.111511,25.938681 433.432068,25.545444 
	C430.914276,24.253958 428.918488,23.317608 426.922729,22.381260 
	C436.914276,21.427322 445.309784,25.849203 453.208923,30.927969 
	C462.063354,36.620934 469.304657,44.047325 472.828522,54.611404 
	C472.336823,55.015282 472.144745,55.023544 471.952637,55.031807 
z"/>
<path fill="#F6D158" opacity="1.000000" stroke="none" 
	d="
M425.002197,23.264603 
	C403.223419,23.199814 381.444580,23.140615 359.665863,23.060844 
	C357.678741,23.053566 355.692047,22.914452 353.387878,22.583942 
	C354.289032,22.008585 355.506653,21.408030 356.726013,21.404432 
	C377.779755,21.342310 398.833801,21.341305 419.887665,21.375662 
	C421.359711,21.378063 422.831207,21.761610 424.686096,22.376064 
	C425.069244,22.784212 425.002197,23.264603 425.002197,23.264603 
z"/>
<path fill="#EDC643" opacity="1.000000" stroke="none" 
	d="
M471.970947,55.435833 
	C472.144745,55.023544 472.336823,55.015282 472.817444,54.992401 
	C478.727234,64.587616 480.038666,74.884972 477.662750,86.007690 
	C477.316193,86.300117 476.852081,86.300133 476.852081,86.300133 
	C476.852081,86.300133 476.402100,86.186516 475.835541,85.966515 
	C472.221802,85.555290 469.174591,85.364067 466.118744,85.073326 
	C466.110077,84.973808 466.026672,84.792290 466.026672,84.792290 
	C467.911102,83.910309 469.996155,82.023430 471.638977,82.351479 
	C475.275970,83.077759 476.664856,81.675255 475.922516,78.669937 
	C474.339233,72.260536 477.084442,65.088440 472.389252,59.218262 
	C471.787933,58.466434 472.100220,56.983898 471.970947,55.435833 
z"/>
<path fill="#F4C423" opacity="1.000000" stroke="none" 
	d="
M425.086945,23.601181 
	C425.002197,23.264603 425.069244,22.784212 425.077942,22.542744 
	C425.499390,22.263556 425.912170,22.225838 426.623840,22.284689 
	C428.918488,23.317608 430.914276,24.253958 433.018677,25.539055 
	C430.475433,25.237789 427.823578,24.587774 425.086945,23.601181 
z"/>
<path fill="#F4C423" opacity="1.000000" stroke="none" 
	d="
M59.141090,24.189447 
	C59.016689,23.622826 59.050350,23.287231 59.096458,22.700340 
	C59.562138,22.407583 60.015362,22.366123 60.770473,22.497231 
	C60.481285,23.253357 59.890213,23.836916 59.141090,24.189447 
z"/>
<path fill="#433B24" opacity="1.000000" stroke="none" 
	d="
M301.823181,61.452793 
	C301.942108,61.711613 302.132843,61.896263 302.715515,62.287636 
	C303.358337,62.715267 303.681061,62.862015 304.003784,63.008762 
	C304.003784,63.008762 304.001221,62.998844 304.048157,63.250427 
	C304.367859,63.695107 304.640625,63.888199 304.913422,64.081299 
	C305.144958,64.597801 305.376495,65.114311 305.829590,66.245865 
	C306.145050,69.265419 306.238922,71.669930 306.332794,74.074432 
	C306.164429,74.381493 305.996033,74.688545 305.491852,75.403473 
	C303.806061,76.447525 302.456085,77.083702 300.944305,77.796143 
	C307.654480,84.020782 305.638458,90.070625 305.943909,95.727509 
	C297.039581,97.215515 296.606689,96.862816 296.464569,88.564056 
	C296.456116,88.069611 296.399780,87.575981 296.513062,86.802689 
	C294.990143,81.883232 291.846771,80.949318 288.093079,84.459167 
	C287.995850,88.586922 288.012115,92.267288 288.028412,95.947647 
	C288.028412,95.947647 287.952759,95.947891 287.492554,96.043045 
	C284.464478,96.138206 281.896545,96.138206 279.204987,96.138206 
	C279.204987,83.711693 279.204987,71.977242 279.204987,60.242794 
	C279.204987,60.242794 279.189087,60.108368 279.620667,60.182869 
	C287.309235,60.655846 294.566193,61.054317 301.823181,61.452793 
M296.100372,68.895187 
	C296.100372,68.895187 296.160858,68.796661 295.940796,68.061111 
	C293.131348,66.886246 290.249084,65.148720 287.995911,69.678917 
	C287.949158,70.083977 287.902374,70.489037 287.422424,71.077705 
	C287.569275,71.420837 287.716156,71.763962 287.952332,72.704445 
	C288.018341,73.100945 288.084320,73.497444 288.121582,74.661583 
	C290.564087,74.589348 293.006592,74.517120 295.860840,74.204124 
	C296.121124,74.009346 296.321442,73.765350 297.022827,73.115135 
	C296.749481,71.690613 296.476135,70.266083 296.100372,68.895187 
z"/>
<path fill="#453C21" opacity="1.000000" stroke="none" 
	d="
M133.385162,67.218323 
	C133.492386,67.079842 133.599625,66.941353 134.056717,66.434097 
	C141.080353,58.277264 149.062744,58.664814 157.610260,62.350563 
	C157.646408,62.344128 157.671509,62.413162 157.776413,62.742001 
	C159.201889,65.654106 160.522461,68.237373 162.169998,71.460251 
	C158.492859,71.849724 156.246704,72.087631 153.744934,72.220123 
	C153.310669,72.069305 153.132019,72.023911 152.896149,71.622620 
	C150.100204,66.557968 145.834518,65.441910 143.066544,68.709915 
	C139.868118,72.486130 140.307785,84.434166 143.887695,88.106445 
	C143.991074,87.997139 143.788895,88.218079 143.922394,88.562256 
	C146.835434,91.031601 149.685501,90.676643 151.407776,87.935410 
	C153.998611,83.811714 157.305161,84.708427 161.879745,85.612854 
	C160.707748,88.027809 160.066574,90.261047 158.727997,91.937386 
	C154.600616,97.106270 148.964111,97.717690 142.887558,96.549660 
	C136.677948,95.356049 132.880127,91.130859 132.319260,85.381470 
	C131.737549,79.418495 132.954742,73.280037 133.385162,67.218323 
z"/>
<path fill="#443C20" opacity="1.000000" stroke="none" 
	d="
M80.480858,91.744629 
	C80.480858,91.744629 80.223495,91.927940 79.822617,92.175400 
	C74.007286,97.671555 67.547256,98.252953 60.956909,95.705368 
	C55.045372,93.420174 53.252678,88.141678 52.566589,82.137024 
	C50.914387,67.676857 58.010059,58.706982 70.630325,60.129761 
	C73.473892,60.450340 76.171402,62.066471 78.936142,63.086208 
	C78.936142,63.086208 79.005882,63.015087 79.059708,63.367279 
	C80.184013,65.492332 81.254501,67.265190 82.313416,69.361679 
	C82.407074,70.103493 82.512291,70.521683 82.396103,71.127609 
	C82.107376,71.496048 82.040077,71.676735 81.720238,71.950562 
	C81.312202,72.133301 81.156708,72.222885 80.590500,72.181313 
	C76.984428,71.847214 73.987221,72.291153 71.765968,68.493942 
	C69.747849,65.043976 63.724590,66.514389 62.928883,70.830521 
	C62.023304,75.742584 62.306755,80.974228 62.829967,85.988014 
	C62.986507,87.488144 65.539337,89.538498 67.252983,89.833351 
	C68.737083,90.088707 70.587486,88.215218 72.258636,87.258728 
	C72.241280,87.234772 72.283775,87.193581 72.587372,86.973557 
	C75.933456,86.101746 78.975945,85.449951 82.047264,84.879921 
	C82.076096,84.961678 82.248016,84.984207 82.184036,85.372604 
	C81.573647,87.755547 81.027252,89.750092 80.480858,91.744629 
z"/>
<path fill="#D4AD2F" opacity="1.000000" stroke="none" 
	d="
M168.017883,98.071449 
	C167.013596,96.958450 166.009323,95.845451 165.004242,93.899384 
	C165.028046,82.060387 165.052658,71.054466 165.077271,60.048542 
	C171.127655,57.948853 176.735641,57.697479 180.400604,64.422768 
	C183.735168,59.588314 191.144745,57.132965 195.873062,59.244705 
	C199.836288,61.014740 197.240677,63.729378 196.058487,65.771370 
	C194.837677,67.880035 192.452972,69.422951 191.607468,71.611328 
	C190.709656,73.935081 190.153976,77.058762 190.990372,79.242813 
	C192.623291,83.506783 195.303360,87.374825 197.598999,91.378609 
	C200.218323,95.946938 198.744629,98.719406 193.531616,98.938828 
	C185.526184,99.275780 184.447723,98.408119 181.888641,90.304131 
	C181.427368,88.843346 180.258850,87.605881 178.665359,85.068863 
	C177.148956,91.522255 180.547501,100.364441 169.380478,98.747604 
	C168.619522,98.296333 168.346741,98.136124 168.017883,98.071449 
M188.426468,79.154404 
	C186.191681,76.502190 185.988235,74.158005 188.601898,71.353096 
	C191.452393,68.294029 193.735184,64.705963 196.695038,60.778465 
	C190.542450,59.678173 186.027267,59.635010 183.143936,65.274307 
	C181.478668,68.531326 179.055496,71.400833 176.973450,74.444756 
	C175.898056,70.826698 175.744110,67.696579 175.940643,64.588623 
	C176.143799,61.376064 174.976852,60.151730 171.674103,60.149799 
	C168.370407,60.147869 166.758362,60.956562 166.927475,64.630936 
	C167.172043,69.945107 166.985931,75.279060 166.984909,80.604576 
	C166.983948,85.699028 166.984711,90.793488 166.984711,95.824760 
	C170.359528,95.824760 172.916977,95.824760 175.379745,95.824760 
	C176.959396,90.981018 173.797058,85.153419 179.924225,81.643257 
	C181.293457,84.415260 182.604630,87.035355 183.885818,89.670029 
	C187.536911,97.178223 187.671219,97.247337 197.235046,95.618912 
	C194.350723,90.222641 191.563171,85.007416 188.426468,79.154404 
z"/>
<path fill="#FBC310" opacity="1.000000" stroke="none" 
	d="
M164.749756,59.883255 
	C165.052658,71.054466 165.028046,82.060387 164.987000,93.535233 
	C163.895370,94.002258 162.820175,94.000366 161.357483,93.606834 
	C161.203644,92.439499 161.291611,91.576118 161.696411,90.903404 
	C163.367264,88.126724 164.337143,85.139633 161.028610,83.199409 
	C157.749664,81.276550 153.432648,80.640297 151.411362,84.490875 
	C149.492386,88.146545 146.831894,88.042168 143.788895,88.218079 
	C143.788895,88.218079 143.991074,87.997139 143.956848,87.652847 
	C143.612305,84.218658 142.824646,81.080681 143.129593,78.052750 
	C143.418671,75.182304 144.852722,72.427170 145.783249,69.621338 
	C148.008728,70.399483 150.233337,71.180191 152.461685,71.950012 
	C152.611038,72.001610 152.788818,71.970924 152.953369,71.978516 
	C153.132019,72.023911 153.310669,72.069305 153.803131,72.565620 
	C156.305420,73.511955 158.743134,74.811340 160.599625,74.235832 
	C161.963303,73.813095 163.726730,70.516617 163.266296,69.236839 
	C162.298309,66.546387 162.087479,62.518635 157.671509,62.413162 
	C157.671509,62.413162 157.646408,62.344128 157.725800,62.007309 
	C157.509430,60.794884 157.213684,59.919285 156.917923,59.043682 
	C159.419357,59.268444 161.920792,59.493206 164.749756,59.883255 
z"/>
<path fill="#D9B12D" opacity="1.000000" stroke="none" 
	d="
M278.909485,60.155926 
	C279.204987,71.977242 279.204987,83.711693 279.204987,96.138206 
	C281.896545,96.138206 284.464478,96.138206 287.481964,96.079369 
	C285.473694,100.619789 280.239594,100.335274 277.072601,95.414963 
	C268.726898,101.535774 259.289490,98.659050 250.256668,98.314293 
	C248.790878,98.258339 246.304520,95.089401 246.233704,93.283173 
	C245.836502,83.150131 245.910172,72.990341 246.184998,62.849495 
	C246.220276,61.547485 248.327194,59.238461 249.526138,59.204178 
	C257.148315,58.986217 264.785065,59.276134 272.636902,59.772820 
	C272.856812,60.146946 272.684082,60.323315 272.243378,60.268013 
	C265.681641,60.181568 259.551453,60.342052 253.442886,60.050175 
	C249.539047,59.863640 248.106201,61.273132 248.186523,65.142258 
	C248.371979,74.072922 248.292480,83.009071 248.220978,92.301537 
	C248.348770,93.820580 248.576035,94.981087 249.103943,96.458878 
	C255.316849,96.881798 261.228973,97.059029 267.141449,97.072723 
	C272.921387,97.086113 273.776367,96.081879 273.711334,89.828506 
	C273.798828,89.624084 273.870300,89.185135 274.250488,89.165482 
	C277.349274,90.265579 278.022217,89.118935 277.994476,86.479950 
	C277.901764,77.656555 277.985168,68.831314 278.001129,60.006779 
	C278.205414,60.027538 278.409698,60.048298 278.909485,60.155926 
z"/>
<path fill="#615018" opacity="1.000000" stroke="none" 
	d="
M336.005981,59.961689 
	C336.263184,60.154156 336.498535,60.370369 336.803467,61.167126 
	C336.783600,62.202850 336.672302,62.681789 336.384827,63.141617 
	C336.208679,63.122505 335.863708,63.037693 335.814697,62.856964 
	C335.493286,62.774239 335.220917,62.872238 334.486084,62.967056 
	C329.095123,62.647713 324.165100,62.352722 319.238586,62.007401 
	C316.304199,61.801720 313.910309,62.045887 313.955139,65.970596 
	C314.047882,74.091011 313.873505,82.216187 314.094788,90.331612 
	C314.128418,91.566086 315.643860,93.764427 316.557220,93.808960 
	C322.864685,94.116470 329.194305,93.970848 336.336426,93.970848 
	C333.349274,90.773537 331.946411,90.392128 326.789032,91.199348 
	C323.961426,91.641907 321.423279,91.931541 320.882568,88.114365 
	C320.972046,88.039421 321.154572,87.893852 321.479523,88.151886 
	C326.856964,88.606216 331.909485,88.802513 336.961975,88.998802 
	C336.961975,88.998802 337.288391,89.173203 337.531464,89.573334 
	C337.074463,96.816582 337.074463,96.815948 330.467987,96.826241 
	C325.646515,96.833748 320.823914,96.784584 316.003967,96.874962 
	C313.341949,96.924866 312.019867,95.982758 312.063812,93.122482 
	C312.232208,82.156120 312.286774,71.188011 312.383789,60.220558 
	C312.383789,60.220558 312.738586,60.167858 313.354858,60.117859 
	C321.316071,60.032471 328.661041,59.997078 336.005981,59.961689 
z"/>
<path fill="#F9C313" opacity="1.000000" stroke="none" 
	d="
M277.595703,60.004448 
	C277.985168,68.831314 277.901764,77.656555 277.994476,86.479950 
	C278.022217,89.118935 277.349274,90.265579 274.265900,89.151718 
	C273.901093,89.157608 273.899170,89.123901 273.652100,88.791977 
	C268.333069,87.941193 263.261108,87.422348 258.130737,86.557632 
	C258.126221,85.516144 258.180176,84.820518 258.682800,84.089767 
	C261.924042,84.023476 264.716766,84.004646 267.509064,83.958611 
	C273.587433,83.858398 275.398804,80.817398 272.701080,74.877602 
	C272.385315,74.495766 272.179016,74.302849 271.700195,73.801620 
	C267.672241,73.100014 263.898010,72.726860 260.123779,72.353714 
	C260.152710,71.679291 260.181641,71.004875 260.210571,70.330452 
	C262.699921,70.208572 265.223328,70.292984 267.666107,69.889252 
	C269.188354,69.637657 270.588715,68.648407 272.184814,67.910049 
	C272.325836,67.829895 272.643524,67.763947 273.010651,67.608635 
	C273.567566,64.979805 273.757355,62.506283 273.947144,60.032761 
	C275.028168,60.022545 276.109192,60.012333 277.595703,60.004448 
z"/>
<path fill="#D4AC2B" opacity="1.000000" stroke="none" 
	d="
M143.922394,88.562256 
	C146.831894,88.042168 149.492386,88.146545 151.411362,84.490875 
	C153.432648,80.640297 157.749664,81.276550 161.028610,83.199409 
	C164.337143,85.139633 163.367264,88.126724 161.696411,90.903404 
	C161.291611,91.576118 161.203644,92.439499 160.953705,93.605522 
	C155.929810,98.398903 150.114822,99.657959 143.541214,99.113976 
	C138.171844,98.669662 134.574326,96.341858 132.135529,90.853409 
	C131.126450,86.529488 130.558334,82.764717 129.998123,78.542542 
	C130.041061,74.749817 130.076096,71.414490 130.111145,68.079163 
	C130.967651,67.758652 131.824158,67.438148 133.032913,67.167984 
	C132.954742,73.280037 131.737549,79.418495 132.319260,85.381470 
	C132.880127,91.130859 136.677948,95.356049 142.887558,96.549660 
	C148.964111,97.717690 154.600616,97.106270 158.727997,91.937386 
	C160.066574,90.261047 160.707748,88.027809 161.879745,85.612854 
	C157.305161,84.708427 153.998611,83.811714 151.407776,87.935410 
	C149.685501,90.676643 146.835434,91.031601 143.922394,88.562256 
z"/>
<path fill="#CFA92A" opacity="1.000000" stroke="none" 
	d="
M78.931046,62.706894 
	C76.171402,62.066471 73.473892,60.450340 70.630325,60.129761 
	C58.010059,58.706982 50.914387,67.676857 52.566589,82.137024 
	C53.252678,88.141678 55.045372,93.420174 60.956909,95.705368 
	C67.547256,98.252953 74.007286,97.671555 79.741402,92.310913 
	C78.064072,94.389549 76.477127,97.577400 73.998459,98.596558 
	C63.740810,102.814262 53.622986,96.162888 51.230793,85.376572 
	C49.413677,77.183266 49.550819,69.858063 54.988701,63.306347 
	C59.896847,57.392860 74.349304,56.957626 78.931046,62.706894 
z"/>
<path fill="#D9AE27" opacity="1.000000" stroke="none" 
	d="
M210.975250,62.992142 
	C210.725571,60.254387 211.603821,58.640312 214.724976,58.980240 
	C216.946671,59.222206 219.188538,59.279057 221.581467,59.842079 
	C221.741531,60.265640 221.476685,60.536987 221.116470,60.472397 
	C218.021515,60.740837 215.286774,61.073864 212.206161,61.449009 
	C212.206161,71.027946 212.198318,80.314812 212.208710,89.601662 
	C212.216629,96.674881 212.227646,96.686264 219.451584,96.229240 
	C220.071106,96.190041 220.672516,95.864922 221.019562,95.755486 
	C221.019562,92.529800 221.229858,89.560539 220.968613,86.633369 
	C220.606934,82.580643 222.001221,81.052704 226.250885,81.091293 
	C230.322662,81.128265 232.764771,81.838402 232.047836,86.548706 
	C231.927811,87.337296 232.210770,88.187218 232.210129,89.429863 
	C231.981918,91.568909 231.851105,93.286888 231.720276,95.004875 
	C230.855209,92.510796 230.157944,89.939453 229.059265,87.552910 
	C228.444931,86.218460 227.164581,85.190613 226.184341,84.024605 
	C225.445129,85.413788 224.627121,86.768997 224.006195,88.209175 
	C223.763824,88.771301 223.965622,89.524521 223.963501,90.190704 
	C223.936157,98.751648 219.377335,101.467827 211.213562,96.867783 
	C211.001938,85.041565 210.988586,74.016853 210.975250,62.992142 
z"/>
<path fill="#D9AE27" opacity="1.000000" stroke="none" 
	d="
M231.799164,60.778328 
	C234.816223,60.260307 237.965515,59.019222 240.793289,59.536331 
	C242.159943,59.786251 243.733978,63.308544 243.816330,65.404106 
	C244.153839,73.992630 244.251709,82.619072 243.769806,91.194016 
	C243.624329,93.782524 241.899918,97.353096 239.830795,98.439156 
	C238.029709,99.384544 234.722992,97.461494 232.505402,96.473991 
	C235.508896,96.142021 238.088562,96.142021 240.743851,96.142021 
	C240.743851,84.113014 240.743851,72.766838 240.743851,61.231533 
	C237.908203,61.231533 235.453583,61.231533 232.762161,61.141563 
	C232.356842,61.041050 232.188293,61.030506 231.963837,60.960258 
	C231.907913,60.900555 231.799164,60.778328 231.799164,60.778328 
z"/>
<path fill="#D2AB2D" opacity="1.000000" stroke="none" 
	d="
M416.205963,132.807159 
	C413.106171,133.159851 410.006378,133.512558 406.474487,133.804932 
	C408.134186,132.870804 410.225922,131.997009 413.040161,130.821411 
	C410.047272,125.957397 406.956512,120.859856 403.791992,115.808487 
	C398.735718,107.737251 393.507965,99.770576 388.588562,91.617409 
	C385.261414,86.103188 388.615997,75.394844 394.603394,73.014954 
	C395.061737,73.087204 395.249756,73.317039 395.029114,73.564270 
	C388.932983,78.860909 386.998199,83.713379 389.763519,88.968178 
	C392.365723,93.912987 395.827362,98.405525 398.910858,103.097046 
	C398.910858,103.097054 398.896729,103.006294 398.922119,103.400833 
	C402.622101,109.549629 406.296692,115.303886 409.971313,121.058151 
	C409.971313,121.058144 409.999237,121.003632 410.071136,121.347298 
	C412.164032,125.396362 414.184998,129.101761 416.205963,132.807159 
z"/>
<path fill="#55450F" opacity="1.000000" stroke="none" 
	d="
M115.813965,86.942581 
	C115.863953,79.960419 115.913948,72.978264 116.013199,65.136612 
	C116.045341,63.183826 116.028214,62.090530 116.011086,60.997234 
	C116.200562,60.760418 116.407173,60.539635 117.233322,60.243263 
	C120.240776,60.429287 122.645836,60.706940 125.037399,61.453949 
	C125.167755,68.337517 125.311592,74.751732 125.450928,81.532166 
	C125.451591,82.874687 125.456757,83.850983 125.318466,85.279373 
	C125.285194,88.264336 125.395378,90.797195 125.505554,93.330063 
	C125.205147,94.409958 124.904747,95.489861 123.898483,96.676620 
	C121.137459,96.798904 119.082275,96.814339 117.027100,96.829773 
	C117.027100,96.829765 116.791672,96.693649 116.545036,96.306351 
	C116.136925,92.926903 115.975449,89.934738 115.813965,86.942581 
M117.959839,66.763084 
	C117.963219,74.590416 118.000069,82.417976 117.949066,90.244949 
	C117.934265,92.516533 118.335052,94.606293 121.099289,93.860489 
	C122.289993,93.539238 123.842453,91.652260 123.880081,90.434830 
	C124.126930,82.448662 124.104622,74.448433 123.893059,66.460136 
	C123.861893,65.283211 122.362305,64.145172 121.542114,62.989132 
	C120.351242,63.937115 119.160362,64.885094 117.959839,66.763084 
z"/>
<path fill="#4B4119" opacity="1.000000" stroke="none" 
	d="
M403.617615,49.300766 
	C403.609253,52.734879 403.985382,55.790150 403.434296,58.667839 
	C403.149872,60.153103 401.217590,61.322796 400.029877,62.635063 
	C398.925781,61.391872 397.081543,60.264114 396.866058,58.882351 
	C396.360931,55.643215 396.550476,52.280598 396.621796,48.971481 
	C396.679138,46.311512 396.655365,43.097057 400.409637,43.218269 
	C403.861481,43.329720 403.671539,46.310577 403.617615,49.300766 
z"/>
<path fill="#E1B62A" opacity="1.000000" stroke="none" 
	d="
M311.954834,60.212029 
	C312.286774,71.188011 312.232208,82.156120 312.063812,93.122482 
	C312.019867,95.982758 313.341949,96.924866 316.003967,96.874962 
	C320.823914,96.784584 325.646515,96.833748 330.467987,96.826241 
	C337.074463,96.815948 337.074463,96.816582 337.715515,89.592621 
	C338.401001,90.666084 340.136444,92.654106 339.696655,93.470512 
	C338.563110,95.575073 336.597717,98.529976 334.732483,98.707664 
	C328.156067,99.334099 321.457123,99.247986 314.862213,98.717216 
	C313.140594,98.578651 310.296204,95.899155 310.234222,94.298866 
	C309.823608,83.695297 310.000122,73.067520 310.100098,62.448696 
	C310.107178,61.695881 311.029236,60.951691 311.954834,60.212029 
z"/>
<path fill="#554516" opacity="1.000000" stroke="none" 
	d="
M370.464661,55.347710 
	C371.932129,54.969627 373.693085,54.258537 374.297607,54.811554 
	C377.945770,58.149075 381.423218,61.692455 384.706940,65.389748 
	C385.242462,65.992744 384.930359,68.038055 384.284515,68.809029 
	C383.623383,69.598297 381.441345,70.312454 381.006531,69.905113 
	C377.057831,66.205666 373.296265,62.298828 369.642456,58.304070 
	C369.281647,57.909603 370.004089,56.524303 370.464661,55.347710 
z"/>
<path fill="#564616" opacity="1.000000" stroke="none" 
	d="
M416.046936,69.066017 
	C415.852631,67.441536 415.392273,65.632988 416.092682,64.797478 
	C418.837311,61.523232 421.782257,58.362106 425.021301,55.589497 
	C426.031921,54.724377 428.204895,55.217171 429.845795,55.088364 
	C429.782867,56.859497 430.406982,59.164715 429.525085,60.299194 
	C427.114746,63.399940 424.239838,66.216942 421.184418,68.697273 
	C420.102783,69.575294 417.968109,69.156021 416.046936,69.066017 
z"/>
<path fill="#514414" opacity="1.000000" stroke="none" 
	d="
M372.799194,107.851974 
	C375.172516,105.493538 377.092682,103.093971 379.508087,101.400955 
	C380.626068,100.617332 382.709564,101.211143 384.355316,101.180481 
	C384.277069,102.788979 384.803131,104.853584 384.001282,105.915932 
	C382.016663,108.545319 379.440491,110.732399 377.071259,113.065979 
	C375.169769,114.938866 373.071167,117.490486 370.429291,114.612892 
	C367.766174,111.712227 370.687653,109.917191 372.799194,107.851974 
z"/>
<path fill="#FCC113" opacity="1.000000" stroke="none" 
	d="
M210.601471,63.065617 
	C210.988586,74.016853 211.001938,85.041565 211.016357,96.535553 
	C210.012695,95.351074 208.203491,93.727585 208.139954,92.038437 
	C207.835953,83.957283 207.889511,75.855247 208.106323,67.768417 
	C208.148178,66.207466 209.487122,64.681297 210.601471,63.065617 
z"/>
<path fill="#F8C723" opacity="1.000000" stroke="none" 
	d="
M125.461922,84.827278 
	C125.456757,83.850983 125.451591,82.874687 125.654724,81.166519 
	C125.907227,73.959244 125.951439,67.483833 126.051483,61.019730 
	C126.107323,61.031036 126.219078,61.008774 126.219078,61.008774 
	C126.813309,62.011337 127.504890,62.970482 127.976448,64.027756 
	C128.531677,65.272644 128.896240,66.602562 129.727310,67.987381 
	C130.076096,71.414490 130.041061,74.749817 129.605591,78.630775 
	C128.806458,83.119843 128.407745,87.063271 128.009033,91.006706 
	C128.006851,91.755203 128.004669,92.503700 127.758995,93.625534 
	C127.515503,93.998871 127.029221,93.996239 127.029221,93.996239 
	C126.965027,93.735710 126.846062,93.503197 126.423683,92.746117 
	C125.937325,89.738113 125.699623,87.282692 125.461922,84.827278 
z"/>
<path fill="#615018" opacity="1.000000" stroke="none" 
	d="
M335.999634,74.151154 
	C335.999634,74.151154 336.196136,74.285660 336.366913,74.631592 
	C336.291748,77.260254 336.045837,79.542984 335.799927,81.825714 
	C335.799896,81.825714 335.961792,81.878487 335.445862,81.810333 
	C332.491577,81.748215 330.012939,82.038940 327.623230,81.701004 
	C322.646759,80.997284 320.681396,83.082817 321.154572,87.893852 
	C321.154572,87.893852 320.972046,88.039421 320.558472,87.968826 
	C318.265289,83.060585 320.418701,79.284073 325.221436,79.070580 
	C328.110352,78.942154 331.003479,78.908279 333.894714,78.831917 
	C333.923828,78.244896 333.952911,77.657883 333.981995,77.070862 
	C331.289124,76.217903 328.596222,75.364944 326.340881,74.365204 
	C329.852173,74.195999 332.925903,74.173576 335.999634,74.151154 
z"/>
<path fill="#544616" opacity="1.000000" stroke="none" 
	d="
M461.563019,89.620567 
	C461.799438,93.385315 459.696198,93.670967 457.270966,92.037964 
	C452.401794,88.759293 448.579437,89.511360 444.512695,93.643967 
	C443.244659,94.932564 439.566101,95.424416 437.995300,94.525681 
	C434.236267,92.374901 431.564850,92.863213 427.992950,94.998665 
	C426.361237,95.974174 424.298553,100.398705 421.544495,96.254608 
	C425.581268,94.280029 429.248657,92.595963 432.916046,90.911911 
	C433.364319,90.975731 433.812592,91.039551 434.846680,91.332108 
	C437.994659,91.025864 440.871857,96.841103 443.179443,91.176460 
	C443.179443,91.176460 443.009216,90.996429 443.442810,91.006393 
	C447.929993,88.230873 452.161713,87.395607 456.902740,89.333427 
	C458.267303,89.891190 459.999420,89.549744 461.563019,89.620567 
z"/>
<path fill="#D9AE27" opacity="1.000000" stroke="none" 
	d="
M221.874207,60.130226 
	C222.671921,62.433224 223.240829,64.903580 224.036850,67.298454 
	C224.541016,68.815277 225.383545,70.219635 226.074310,71.674438 
	C227.068466,70.266212 228.293930,68.963905 228.999466,67.423462 
	C229.922424,65.408279 230.434418,63.204865 231.461182,60.930382 
	C231.799164,60.778328 231.907913,60.900555 231.965942,61.420151 
	C231.970932,65.912270 231.917908,69.884796 231.423004,73.911560 
	C227.714294,73.915192 224.447464,73.864578 221.135681,73.371048 
	C221.219376,68.797737 221.348038,64.667366 221.476685,60.536987 
	C221.476685,60.536987 221.741531,60.265640 221.874207,60.130226 
z"/>
<path fill="#E1B62A" opacity="1.000000" stroke="none" 
	d="
M296.365723,87.081970 
	C296.399780,87.575981 296.456116,88.069611 296.464569,88.564056 
	C296.606689,96.862816 297.039581,97.215515 305.943909,95.727509 
	C305.638458,90.070625 307.654480,84.020782 300.944305,77.796143 
	C302.456085,77.083702 303.806061,76.447525 305.459106,75.665619 
	C306.716400,80.933182 308.106232,86.320114 308.435974,91.771179 
	C308.594208,94.387436 308.425110,98.093117 304.328796,98.927521 
	C299.263733,99.959244 295.831390,98.566605 295.204346,94.815109 
	C294.826599,92.554962 295.072601,90.190559 295.381653,87.450638 
	C295.938599,87.046173 296.152161,87.064072 296.365723,87.081970 
z"/>
<path fill="#47390F" opacity="1.000000" stroke="none" 
	d="
M232.998947,61.231533 
	C235.453583,61.231533 237.908203,61.231533 240.743851,61.231533 
	C240.743851,72.766838 240.743851,84.113014 240.743851,96.142021 
	C238.088562,96.142021 235.508896,96.142021 232.473740,96.090469 
	C231.986053,95.861771 231.953842,95.684616 231.820953,95.256172 
	C231.851105,93.286888 231.981918,91.568909 232.477051,89.428383 
	C233.199219,89.001274 233.557083,88.996704 233.939514,89.419571 
	C233.917511,92.094658 233.940521,94.682938 237.133041,93.818970 
	C238.348114,93.490135 239.818909,91.307159 239.865845,89.924835 
	C240.128860,82.179672 240.088684,74.418503 239.893112,66.669350 
	C239.862106,65.440041 238.767807,63.559052 237.725800,63.176750 
	C235.635681,62.409916 233.785782,63.175591 233.662277,65.757759 
	C233.270782,64.081833 233.134872,62.656681 232.998947,61.231533 
z"/>
<path fill="#D2AB2D" opacity="1.000000" stroke="none" 
	d="
M432.688599,90.649155 
	C429.248657,92.595963 425.581268,94.280029 421.560547,95.890968 
	C421.207184,95.817848 421.169220,95.845787 421.110779,95.518524 
	C416.948547,88.547874 412.844788,81.904480 408.849487,75.152802 
	C408.957977,75.044510 409.176514,74.829544 409.176514,74.829544 
	C412.416260,78.993347 415.720276,83.109367 418.865692,87.343239 
	C420.222595,89.169647 421.251282,91.239861 422.105652,92.661247 
	C425.690948,91.873642 429.076050,91.130028 432.688599,90.649155 
z"/>
<path fill="#E1B62A" opacity="1.000000" stroke="none" 
	d="
M335.792480,73.817719 
	C332.925903,74.173576 329.852173,74.195999 325.921875,74.276550 
	C323.926208,74.241135 322.787140,74.147591 321.695923,73.678711 
	C321.521729,71.880852 321.299652,70.458328 321.186646,68.770294 
	C321.879364,68.057854 322.462952,67.610924 323.209930,67.221352 
	C323.373291,67.278709 323.717072,67.237679 324.089142,67.440277 
	C328.308472,67.742783 332.155731,67.842682 336.002991,67.942581 
	C334.737305,68.620453 333.524811,69.716812 332.194489,69.885773 
	C329.714783,70.200706 327.166626,69.976189 324.646942,69.976189 
	C324.634766,70.386475 324.622589,70.796761 324.610413,71.207039 
	C328.268738,71.966125 331.927032,72.725212 335.792480,73.817719 
z"/>
<path fill="#E2B62B" opacity="1.000000" stroke="none" 
	d="
M115.407051,86.971436 
	C115.975449,89.934738 116.136925,92.926903 116.414597,96.344734 
	C114.971230,96.843468 113.411659,96.916527 111.370026,96.686943 
	C110.851898,96.193542 110.815842,96.002792 110.895782,95.452148 
	C112.283478,89.217621 112.277649,89.361763 106.476204,89.127151 
	C103.139359,88.992210 99.825012,88.300529 96.658745,87.923828 
	C96.816948,87.988182 97.150764,88.060638 97.388321,88.048721 
	C97.625885,88.036804 98.098671,87.972153 98.355118,87.966125 
	C98.781586,87.941658 98.951599,87.923210 99.121613,87.904755 
	C104.414452,87.603264 109.707298,87.301773 115.407051,86.971436 
z"/>
<path fill="#3B310D" opacity="1.000000" stroke="none" 
	d="
M96.101173,60.495155 
	C96.101173,60.495155 96.350555,60.435276 96.507790,60.756531 
	C96.815765,69.703491 96.966507,78.329208 97.025696,87.234375 
	C97.006348,87.696106 97.078552,87.878372 97.150764,88.060638 
	C97.150764,88.060638 96.816948,87.988182 96.309708,87.818588 
	C95.537201,80.928619 95.339905,74.204422 94.962936,67.490318 
	C94.857552,65.613312 94.222244,63.766056 93.999008,61.686996 
	C94.812370,61.144279 95.456772,60.819714 96.101173,60.495155 
z"/>
<path fill="#E1B62A" opacity="1.000000" stroke="none" 
	d="
M321.479523,88.151886 
	C320.681396,83.082817 322.646759,80.997284 327.623230,81.701004 
	C330.012939,82.038940 332.491577,81.748215 335.378479,81.758316 
	C334.981537,82.504631 334.223602,83.681808 333.271698,83.868134 
	C331.512512,84.212440 329.586823,83.713814 327.831573,84.067665 
	C326.511688,84.333740 325.349823,85.383492 324.117615,86.084358 
	C325.414276,86.717010 326.659424,87.713402 328.018433,87.906013 
	C330.781372,88.297623 333.605804,88.255074 336.683441,88.695122 
	C331.909485,88.802513 326.856964,88.606216 321.479523,88.151886 
z"/>
<path fill="#F8CA31" opacity="1.000000" stroke="none" 
	d="
M97.117249,86.954918 
	C96.966507,78.329208 96.815765,69.703491 96.547653,60.634644 
	C97.292038,61.696896 98.842796,63.177223 98.898613,64.711929 
	C99.168434,72.129860 99.036217,79.562416 99.084076,87.447281 
	C98.951599,87.923210 98.781586,87.941658 98.239876,87.750015 
	C97.707642,87.229668 97.457329,87.034668 97.117249,86.954918 
z"/>
<path fill="#ECBB2C" opacity="1.000000" stroke="none" 
	d="
M82.617516,70.939873 
	C82.512291,70.521683 82.407074,70.103493 82.600929,69.306534 
	C83.250702,68.295609 83.601402,67.663437 83.952103,67.031265 
	C85.154335,64.745285 86.356567,62.459301 87.828850,60.528107 
	C88.051567,61.593960 88.004250,62.305023 87.753731,63.363979 
	C87.484314,74.376923 87.418091,85.041977 87.235886,95.789276 
	C87.119896,95.871529 86.893105,96.043091 86.893105,96.043091 
	C86.590355,94.941849 86.287605,93.840599 85.990219,91.921684 
	C85.992661,88.066193 85.989738,85.028366 85.989944,81.537544 
	C85.642776,77.707275 85.292480,74.330002 84.865150,70.797455 
	C84.537651,70.745193 84.287186,70.848221 83.817085,70.971176 
	C83.597450,70.991112 83.158157,71.030762 83.025047,70.995834 
	C82.891937,70.960915 82.617516,70.939873 82.617516,70.939873 
z"/>
<path fill="#D4AC2B" opacity="1.000000" stroke="none" 
	d="
M156.503784,59.042786 
	C157.213684,59.919285 157.509430,60.794884 157.689636,62.013744 
	C149.062744,58.664814 141.080353,58.277264 134.132858,66.182648 
	C132.840912,63.684570 136.699524,59.267616 140.567322,59.097260 
	C145.732224,58.869762 150.914719,59.041573 156.503784,59.042786 
z"/>
<path fill="#D2AB2D" opacity="1.000000" stroke="none" 
	d="
M461.623474,89.634995 
	C459.999420,89.549744 458.267303,89.891190 456.902740,89.333427 
	C452.161713,87.395607 447.929993,88.230873 443.524353,91.099022 
	C444.479004,88.122124 450.509918,84.772301 453.549530,86.305405 
	C457.198242,88.145729 459.940918,88.163536 462.834015,85.313873 
	C463.307831,84.847183 464.425323,85.034050 465.635986,84.855576 
	C466.026672,84.792290 466.110077,84.973808 465.979309,85.305237 
	C465.527313,86.050911 465.206085,86.465149 464.884857,86.879379 
	C464.884857,86.879387 464.933624,86.838547 464.563110,86.856514 
	C463.387024,87.827324 462.581451,88.780167 461.775879,89.733002 
	C461.775879,89.733009 461.683899,89.649422 461.623474,89.634995 
z"/>
<path fill="#E2B62B" opacity="1.000000" stroke="none" 
	d="
M110.074600,97.210037 
	C110.020828,97.365128 109.966995,97.656075 109.913292,97.656044 
	C102.192505,97.652596 94.471725,97.628113 86.751259,97.565453 
	C86.748772,97.565430 86.751099,96.972771 86.822144,96.350021 
	C86.893105,96.043091 87.119896,95.871529 87.409653,95.835480 
	C87.699409,95.799431 88.009300,95.983368 88.278519,96.308472 
	C95.723351,96.825737 102.898979,97.017891 110.074600,97.210037 
z"/>
<path fill="#37332B" opacity="1.000000" stroke="none" 
	d="
M375.813568,83.065109 
	C376.169037,83.517715 376.524506,83.970329 376.482178,84.766670 
	C370.613953,85.973396 365.091034,87.645782 359.908844,84.061890 
	C359.710144,83.876823 359.503052,83.699020 359.326721,83.494675 
	C359.310364,83.475708 359.489532,83.288078 360.234436,83.086899 
	C365.865173,83.018379 370.839386,83.041740 375.813568,83.065109 
z"/>
<path fill="#E1B62A" opacity="1.000000" stroke="none" 
	d="
M288.405518,95.888397 
	C288.012115,92.267288 287.995850,88.586922 288.444519,84.457359 
	C289.617584,84.011841 290.325623,84.015526 291.033691,84.019211 
	C290.283356,87.955856 289.532990,91.892502 288.405518,95.888397 
z"/>
<path fill="#F6C01D" opacity="1.000000" stroke="none" 
	d="
M85.986816,81.990540 
	C85.989738,85.028366 85.992661,88.066193 85.987320,91.560143 
	C85.153862,91.746361 84.328651,91.476448 83.220917,90.709167 
	C82.708267,88.469261 82.478142,86.726738 82.248016,84.984207 
	C82.248016,84.984207 82.076096,84.961678 82.051041,84.540833 
	C81.976685,83.441666 81.927383,82.763336 82.288628,82.060486 
	C83.795052,82.020828 84.890938,82.005684 85.986816,81.990540 
z"/>
<path fill="#D2AB2D" opacity="1.000000" stroke="none" 
	d="
M394.965698,72.973953 
	C398.598175,67.524147 402.767578,70.920883 406.775024,72.781128 
	C406.717133,73.305557 406.422455,73.623192 406.028076,73.477036 
	C402.172363,73.326271 398.711060,73.321648 395.249756,73.317032 
	C395.249756,73.317039 395.061737,73.087204 394.965698,72.973953 
z"/>
<path fill="#FAC217" opacity="1.000000" stroke="none" 
	d="
M128.413177,91.004486 
	C128.407745,87.063271 128.806458,83.119843 129.597687,79.088181 
	C130.558334,82.764717 131.126450,86.529488 131.878174,90.630508 
	C130.980286,90.978607 129.898819,90.990440 128.413177,91.004486 
z"/>
<path fill="#D9B12D" opacity="1.000000" stroke="none" 
	d="
M301.781250,61.128239 
	C294.566193,61.054317 287.309235,60.655846 279.596527,60.246101 
	C282.292175,59.820641 285.432983,59.242569 288.597900,59.038513 
	C291.741058,58.835857 294.908478,59.009476 298.654785,59.245552 
	C299.467651,59.737865 299.751160,59.892467 300.094849,59.936821 
	C300.643005,60.225777 301.191132,60.514729 301.781250,61.128239 
z"/>
<path fill="#D2AB2D" opacity="1.000000" stroke="none" 
	d="
M72.841599,133.384201 
	C69.187386,133.687057 65.424332,133.633408 61.366047,133.312012 
	C64.958138,133.038757 68.845451,133.033234 72.841599,133.384201 
z"/>
<path fill="#E1B62A" opacity="1.000000" stroke="none" 
	d="
M335.712402,59.663952 
	C328.661041,59.997078 321.316071,60.032471 313.509521,60.027065 
	C320.504883,59.779583 327.961853,59.572899 335.712402,59.663952 
z"/>
<path fill="#987A24" opacity="1.000000" stroke="none" 
	d="
M110.283615,97.133377 
	C102.898979,97.017891 95.723351,96.825737 88.746437,96.306229 
	C96.223358,95.923264 103.501579,95.867653 110.779793,95.812042 
	C110.815842,96.002792 110.851898,96.193542 110.908112,96.674507 
	C110.928268,96.964714 110.492622,97.056725 110.283615,97.133377 
z"/>
<path fill="#3B2F0B" opacity="1.000000" stroke="none" 
	d="
M359.911926,84.504578 
	C365.091034,87.645782 370.613953,85.973396 376.491638,85.055969 
	C374.765533,88.453430 362.019318,88.412712 359.911926,84.504578 
z"/>
<path fill="#D9B12D" opacity="1.000000" stroke="none" 
	d="
M291.417725,84.020668 
	C290.325623,84.015526 289.617584,84.011841 288.558044,84.009964 
	C291.846771,80.949318 294.990143,81.883232 296.513062,86.802689 
	C296.152161,87.064072 295.938599,87.046173 295.405518,87.002777 
	C293.991272,85.992226 292.896484,85.007172 291.417725,84.020668 
z"/>
<path fill="#745A06" opacity="1.000000" stroke="none" 
	d="
M375.610077,82.704910 
	C370.839386,83.041740 365.865173,83.018379 360.420471,82.986481 
	C365.102142,82.766861 370.254364,82.555786 375.610077,82.704910 
z"/>
<path fill="#D2AB2D" opacity="1.000000" stroke="none" 
	d="
M442.720215,91.117233 
	C440.871857,96.841103 437.994659,91.025864 435.186646,91.323380 
	C437.380859,91.076614 439.820953,91.067314 442.720215,91.117233 
z"/>
<path fill="#CFA92A" opacity="1.000000" stroke="none" 
	d="
M83.643837,66.863319 
	C83.601402,67.663437 83.250702,68.295609 82.612488,68.982910 
	C81.254501,67.265190 80.184013,65.492332 79.017273,63.392845 
	C80.392525,64.275932 81.864052,65.485657 83.643837,66.863319 
z"/>
<path fill="#D9B12D" opacity="1.000000" stroke="none" 
	d="
M306.488586,74.106422 
	C306.238922,71.669930 306.145050,69.265419 306.064331,66.409782 
	C306.077515,65.958649 306.520782,65.904709 306.851990,66.142868 
	C307.450531,66.592834 307.717865,66.804642 307.985229,67.016449 
	C308.000000,67.447655 308.014771,67.878868 308.018066,69.017998 
	C307.658569,71.196365 307.310547,72.666817 306.962524,74.137268 
	C306.962524,74.137276 306.644409,74.138412 306.488586,74.106422 
z"/>
<path fill="#D1AA22" opacity="1.000000" stroke="none" 
	d="
M117.069000,97.228622 
	C119.082275,96.814339 121.137459,96.798904 123.625847,96.888451 
	C122.042847,100.490509 119.614540,99.471825 117.069000,97.228622 
z"/>
<path fill="#615018" opacity="1.000000" stroke="none" 
	d="
M336.028625,67.737030 
	C332.155731,67.842682 328.308472,67.742783 324.563232,67.335266 
	C328.365662,66.937729 332.066101,66.847816 335.853821,66.848709 
	C335.941132,66.939514 336.115143,67.121704 336.115143,67.121704 
	C336.115143,67.121704 336.054291,67.531487 336.028625,67.737030 
z"/>
<path fill="#CFA92A" opacity="1.000000" stroke="none" 
	d="
M82.184036,85.372604 
	C82.478142,86.726738 82.708267,88.469261 82.916336,90.581032 
	C82.309250,91.226074 81.724220,91.501877 80.810028,91.761154 
	C81.027252,89.750092 81.573647,87.755547 82.184036,85.372604 
z"/>
<path fill="#E1B62A" opacity="1.000000" stroke="none" 
	d="
M336.201630,81.819397 
	C336.045837,79.542984 336.291748,77.260254 336.476562,74.585129 
	C339.059814,76.669182 338.723511,79.219131 336.201630,81.819397 
z"/>
<path fill="#987A24" opacity="1.000000" stroke="none" 
	d="
M95.686211,60.298180 
	C95.456772,60.819714 94.812370,61.144279 93.648605,61.686234 
	C92.425186,61.932549 91.721130,61.961475 90.777420,61.856255 
	C90.293297,61.243275 90.048843,60.764439 89.804398,60.285599 
	C91.626678,60.224133 93.448967,60.162670 95.686211,60.298180 
z"/>
<path fill="#D1AA22" opacity="1.000000" stroke="none" 
	d="
M125.050888,60.984592 
	C122.645836,60.706940 120.240776,60.429287 117.408478,60.098930 
	C119.958817,60.118378 122.936409,60.190533 126.066544,60.635735 
	C126.219078,61.008774 126.107323,61.031036 125.815323,61.013100 
	C125.523331,60.995167 125.050888,60.984592 125.050888,60.984592 
z"/>
<path fill="#D9B12D" opacity="1.000000" stroke="none" 
	d="
M273.717682,60.020824 
	C273.757355,62.506283 273.567566,64.979805 273.119568,67.205627 
	C272.802246,64.746391 272.743164,62.534855 272.684082,60.323315 
	C272.684082,60.323315 272.856812,60.146946 272.943542,60.058643 
	C273.030273,59.970341 273.488220,60.008888 273.717682,60.020824 
z"/>
<path fill="#D1AA22" opacity="1.000000" stroke="none" 
	d="
M115.660042,61.041260 
	C116.028214,62.090530 116.045341,63.183826 115.956055,64.675980 
	C113.228539,64.075760 113.328674,62.707916 115.660042,61.041260 
z"/>
<path fill="#A0841D" opacity="1.000000" stroke="none" 
	d="
M125.318466,85.279373 
	C125.699623,87.282692 125.937325,89.738113 126.277275,92.613907 
	C126.379524,93.034286 125.941414,93.182732 125.723480,93.256393 
	C125.395378,90.797195 125.285194,88.264336 125.318466,85.279373 
z"/>
<path fill="#E1B62A" opacity="1.000000" stroke="none" 
	d="
M307.210999,74.281906 
	C307.310547,72.666817 307.658569,71.196365 308.020020,69.341599 
	C307.842102,70.780373 307.650787,72.603455 307.210999,74.281906 
z"/>
<path fill="#3B310D" opacity="1.000000" stroke="none" 
	d="
M89.558243,60.281242 
	C90.048843,60.764439 90.293297,61.243275 90.566040,62.122467 
	C89.715202,62.687244 88.836060,62.851665 87.956924,63.016083 
	C88.004250,62.305023 88.051567,61.593960 88.216675,60.540169 
	C88.655350,60.285141 88.981232,60.311623 89.558243,60.281242 
z"/>
<path fill="#E1B62A" opacity="1.000000" stroke="none" 
	d="
M336.561035,63.160728 
	C336.672302,62.681789 336.783600,62.202850 336.950867,61.356583 
	C337.158997,63.064407 337.311127,65.139572 337.181458,66.714249 
	C336.782379,65.752701 336.665039,65.291649 336.616089,64.555428 
	C336.643311,63.907082 336.602173,63.533905 336.561035,63.160728 
z"/>
<path fill="#FAC217" opacity="1.000000" stroke="none" 
	d="
M127.051689,94.282364 
	C127.029221,93.996239 127.515503,93.998871 127.758667,93.999786 
	C128.113937,94.497589 128.226059,94.994484 128.338165,95.491379 
	C127.916832,95.183754 127.495491,94.876122 127.051689,94.282364 
z"/>
<path fill="#F4C423" opacity="1.000000" stroke="none" 
	d="
M55.167747,25.868980 
	C55.347988,25.262978 55.864285,24.672049 56.701065,24.063879 
	C56.515629,24.659111 56.009716,25.271584 55.167747,25.868980 
z"/>
<path fill="#D2AB2D" opacity="1.000000" stroke="none" 
	d="
M406.864532,73.146805 
	C407.664429,73.407272 408.316925,73.826500 409.072968,74.537636 
	C409.176514,74.829544 408.957977,75.044510 408.583221,75.047043 
	C407.613129,74.574120 407.017792,74.098663 406.422455,73.623199 
	C406.422455,73.623192 406.717133,73.305557 406.864532,73.146805 
z"/>
<path fill="#E1B62A" opacity="1.000000" stroke="none" 
	d="
M308.162598,66.891815 
	C307.717865,66.804642 307.450531,66.592834 307.075256,66.143120 
	C307.424896,66.192528 307.882446,66.479858 308.162598,66.891815 
z"/>
<path fill="#D9B12D" opacity="1.000000" stroke="none" 
	d="
M305.102295,63.940540 
	C304.640625,63.888199 304.367859,63.695107 304.043396,63.250069 
	C304.424866,63.265350 304.858002,63.532570 305.102295,63.940540 
z"/>
<path fill="#615018" opacity="1.000000" stroke="none" 
	d="
M336.547699,64.830597 
	C336.665039,65.291649 336.782379,65.752701 336.940247,66.570129 
	C336.980835,66.926491 336.558655,67.072617 336.336914,67.097160 
	C336.115143,67.121704 335.941132,66.939514 335.920105,66.554184 
	C335.883667,65.763741 335.868225,65.358620 336.024292,64.910156 
	C336.195801,64.866806 336.547699,64.830597 336.547699,64.830597 
z"/>
<path fill="#D9B12D" opacity="1.000000" stroke="none" 
	d="
M303.896606,62.752121 
	C303.681061,62.862015 303.358337,62.715267 302.915039,62.323471 
	C303.126129,62.217442 303.457794,62.356461 303.896606,62.752121 
z"/>
<path fill="#FBC310" opacity="1.000000" stroke="none" 
	d="
M168.137177,98.282425 
	C168.346741,98.136124 168.619522,98.296333 168.963242,98.758125 
	C168.754318,98.909904 168.476379,98.752975 168.137177,98.282425 
z"/>
<path fill="#E1B62A" opacity="1.000000" stroke="none" 
	d="
M299.958679,59.736015 
	C299.751160,59.892467 299.467651,59.737865 299.123108,59.259384 
	C299.329132,59.118889 299.602661,59.282043 299.958679,59.736015 
z"/>
<path fill="#FAFAFA" opacity="1.000000" stroke="none" 
	d="
M501.652527,147.126343 
	C501.175018,148.452942 500.877411,149.416519 500.434998,150.308197 
	C495.130127,160.999756 468.658295,174.336624 457.063232,171.855850 
	C444.048950,169.071426 431.123566,165.873215 418.146637,162.911392 
	C414.752075,162.136627 412.618805,160.241882 413.050629,156.685303 
	C413.448486,153.407852 416.059265,152.679169 418.997650,152.673706 
	C422.327850,152.667511 425.663483,152.620270 428.986420,152.419785 
	C433.784546,152.130264 434.923157,150.066162 432.402588,145.992386 
	C420.322174,126.467949 408.387177,106.846664 395.869141,87.605476 
	C393.269043,83.608894 395.045898,81.406509 397.275146,79.814117 
	C399.953522,77.900864 403.345001,78.342438 405.422546,81.636543 
	C409.682373,88.390953 413.885529,95.181137 418.107697,101.959290 
	C420.659149,106.055359 422.987244,110.317307 425.865234,114.168839 
	C426.883789,115.531929 429.234192,115.899803 430.976562,116.722031 
	C431.088928,114.841026 431.576752,112.880379 431.199707,111.103233 
	C430.874542,109.570770 429.536621,108.263657 428.695770,106.828003 
	C426.835022,103.650894 426.897736,100.711861 430.249329,98.618820 
	C433.688782,96.470917 436.253235,97.998161 438.216675,101.031326 
	C439.844543,103.546074 441.119171,106.370171 443.117462,108.533234 
	C444.262329,109.772491 446.538910,109.966209 448.306000,110.630630 
	C448.371429,108.877235 448.739990,107.065765 448.418335,105.386528 
	C448.085968,103.651749 446.361298,101.953644 446.558289,100.406601 
	C446.796631,98.534576 448.118073,95.696175 449.503021,95.338852 
	C451.472534,94.830696 454.443665,95.584030 456.045349,96.923897 
	C458.119110,98.658676 459.051086,101.692513 460.908112,103.781761 
	C461.756104,104.735794 463.641296,104.767921 465.056061,105.218170 
	C465.420837,103.672775 466.517456,101.811935 466.012848,100.641266 
	C464.512787,97.161057 464.033325,93.968620 467.693237,91.947159 
	C471.639923,89.767311 474.183167,92.186325 476.220428,95.492477 
	C483.639923,107.533264 491.041473,119.586647 498.620941,131.526611 
	C501.637726,136.279007 502.879120,141.214233 501.652527,147.126343 
z"/>
<path fill="#544616" opacity="1.000000" stroke="none" 
	d="
M406.028076,73.477043 
	C407.017792,74.098663 407.613129,74.574120 408.474731,75.155334 
	C412.844788,81.904480 416.948547,88.547874 421.102264,95.540207 
	C418.825378,93.229546 416.341675,90.688705 414.213898,87.878418 
	C411.879303,84.795021 409.863556,81.469337 407.725769,78.238075 
	C405.148743,74.342842 400.860229,73.944000 397.531830,75.374596 
	C394.544373,76.658646 392.233673,80.016556 390.268921,82.898933 
	C389.616394,83.856201 390.690308,86.310806 391.446838,87.848740 
	C393.840820,92.715446 396.457886,97.472412 398.949768,102.684433 
	C395.827362,98.405525 392.365723,93.912987 389.763519,88.968178 
	C386.998199,83.713379 388.932983,78.860909 395.029114,73.564270 
	C398.711060,73.321648 402.172363,73.326271 406.028076,73.477043 
z"/>
<path fill="#544616" opacity="1.000000" stroke="none" 
	d="
M409.994965,120.665482 
	C406.296692,115.303886 402.622101,109.549629 398.907074,103.444237 
	C400.307770,104.320549 402.207153,105.282150 403.102814,106.826057 
	C405.628754,111.180275 407.742432,115.773682 409.994965,120.665482 
z"/>
<path fill="#544616" opacity="1.000000" stroke="none" 
	d="
M416.379517,133.004883 
	C414.184998,129.101761 412.164032,125.396362 410.042297,121.357552 
	C415.178925,123.632851 417.019714,128.512283 418.129272,133.867828 
	C417.416290,133.763016 416.984680,133.482803 416.379517,133.004883 
z"/>
<path fill="#544616" opacity="1.000000" stroke="none" 
	d="
M465.343628,86.928452 
	C465.206085,86.465149 465.527313,86.050911 465.987976,85.404755 
	C469.174591,85.364067 472.221802,85.555290 475.605042,85.984978 
	C472.561523,86.474808 469.181946,86.726166 465.343628,86.928452 
z"/>
<path fill="#544616" opacity="1.000000" stroke="none" 
	d="
M462.139709,89.800919 
	C462.581451,88.780167 463.387024,87.827324 464.531311,86.857803 
	C464.081177,87.850357 463.292328,88.859596 462.139709,89.800919 
z"/>
<path fill="#F1C521" opacity="1.000000" stroke="none" 
	d="
M296.461853,73.472145 
	C296.321442,73.765350 296.121124,74.009346 295.198486,74.199402 
	C292.407501,74.094437 290.278931,73.994194 288.150330,73.893944 
	C288.084320,73.497444 288.018341,73.100945 287.951599,72.102066 
	C287.919098,71.297821 287.887360,71.095963 287.855621,70.894096 
	C287.902374,70.489037 287.949158,70.083977 288.488617,69.348801 
	C291.374512,68.944679 293.767670,68.870667 296.160858,68.796661 
	C296.160858,68.796661 296.100372,68.895187 296.085327,69.331360 
	C296.200806,71.002403 296.331329,72.237274 296.461853,73.472145 
z"/>
<path fill="#B49739" opacity="1.000000" stroke="none" 
	d="
M296.050842,68.428886 
	C293.767670,68.870667 291.374512,68.944679 288.540649,69.047318 
	C290.249084,65.148720 293.131348,66.886246 296.050842,68.428886 
z"/>
<path fill="#B49739" opacity="1.000000" stroke="none" 
	d="
M288.135956,74.277763 
	C290.278931,73.994194 292.407501,74.094437 294.992615,74.319786 
	C293.006592,74.517120 290.564087,74.589348 288.135956,74.277763 
z"/>
<path fill="#B49739" opacity="1.000000" stroke="none" 
	d="
M296.742340,73.293640 
	C296.331329,72.237274 296.200806,71.002403 296.136536,69.304550 
	C296.476135,70.266083 296.749481,71.690613 296.742340,73.293640 
z"/>
<path fill="#B49739" opacity="1.000000" stroke="none" 
	d="
M287.639038,70.985901 
	C287.887360,71.095963 287.919098,71.297821 287.906921,71.803383 
	C287.716156,71.763962 287.569275,71.420837 287.639038,70.985901 
z"/>
<path fill="#D4AC2B" opacity="1.000000" stroke="none" 
	d="
M152.896149,71.622620 
	C152.788818,71.970924 152.611038,72.001610 152.461685,71.950012 
	C150.233337,71.180191 148.008728,70.399483 145.783249,69.621338 
	C144.852722,72.427170 143.418671,75.182304 143.129593,78.052750 
	C142.824646,81.080681 143.612305,84.218658 143.853455,87.762146 
	C140.307785,84.434166 139.868118,72.486130 143.066544,68.709915 
	C145.834518,65.441910 150.100204,66.557968 152.896149,71.622620 
z"/>
<path fill="#D4AC2B" opacity="1.000000" stroke="none" 
	d="
M157.776413,62.742001 
	C162.087479,62.518635 162.298309,66.546387 163.266296,69.236839 
	C163.726730,70.516617 161.963303,73.813095 160.599625,74.235832 
	C158.743134,74.811340 156.305420,73.511955 154.058746,72.671036 
	C156.246704,72.087631 158.492859,71.849724 162.169998,71.460251 
	C160.522461,68.237373 159.201889,65.654106 157.776413,62.742001 
z"/>
<path fill="#FCC210" opacity="1.000000" stroke="none" 
	d="
M85.989944,81.537537 
	C84.890938,82.005684 83.795052,82.020828 81.885086,82.051361 
	C77.883629,83.332985 72.291351,80.477287 72.283775,87.193581 
	C72.283775,87.193581 72.241280,87.234772 71.841660,87.208588 
	C69.551979,87.474701 67.661919,87.766998 65.002899,88.178207 
	C64.661224,83.160576 64.070091,78.749298 64.223564,74.364082 
	C64.275658,72.875427 66.042046,70.468552 67.321518,70.254669 
	C68.838326,70.001099 71.143867,71.257622 72.281456,72.573730 
	C75.147850,75.889961 78.313789,75.980118 81.001205,72.312469 
	C81.156708,72.222885 81.312202,72.133301 81.968857,71.907791 
	C82.699402,71.524826 82.928780,71.277794 83.158157,71.030762 
	C83.158157,71.030762 83.597450,70.991112 84.043190,70.976540 
	C84.488930,70.961967 84.942184,70.952736 84.942184,70.952736 
	C85.292480,74.330002 85.642776,77.707275 85.989944,81.537537 
z"/>
<path fill="#CFA92A" opacity="1.000000" stroke="none" 
	d="
M80.590500,72.181313 
	C78.313789,75.980118 75.147850,75.889961 72.281456,72.573730 
	C71.143867,71.257622 68.838326,70.001099 67.321518,70.254669 
	C66.042046,70.468552 64.275658,72.875427 64.223564,74.364082 
	C64.070091,78.749298 64.661224,83.160576 65.002899,88.178207 
	C67.661919,87.766998 69.551979,87.474701 71.859016,87.232552 
	C70.587486,88.215218 68.737083,90.088707 67.252983,89.833351 
	C65.539337,89.538498 62.986507,87.488144 62.829967,85.988014 
	C62.306755,80.974228 62.023304,75.742584 62.928883,70.830521 
	C63.724590,66.514389 69.747849,65.043976 71.765968,68.493942 
	C73.987221,72.291153 76.984428,71.847214 80.590500,72.181313 
z"/>
<path fill="#CFA92A" opacity="1.000000" stroke="none" 
	d="
M72.587372,86.973557 
	C72.291351,80.477287 77.883629,83.332985 81.474541,82.075882 
	C81.927383,82.763336 81.976685,83.441666 82.022202,84.459076 
	C78.975945,85.449951 75.933456,86.101746 72.587372,86.973557 
z"/>
<path fill="#CFA92A" opacity="1.000000" stroke="none" 
	d="
M83.025047,70.995834 
	C82.928780,71.277794 82.699402,71.524826 82.221405,71.814636 
	C82.040077,71.676735 82.107376,71.496048 82.396103,71.127609 
	C82.617516,70.939873 82.891937,70.960915 83.025047,70.995834 
z"/>
<path fill="#443B21" opacity="1.000000" stroke="none" 
	d="
M188.601044,79.473297 
	C191.563171,85.007416 194.350723,90.222641 197.235046,95.618912 
	C187.671219,97.247337 187.536911,97.178223 183.885818,89.670029 
	C182.604630,87.035355 181.293457,84.415260 179.924225,81.643257 
	C173.797058,85.153419 176.959396,90.981018 175.379745,95.824760 
	C172.916977,95.824760 170.359528,95.824760 166.984711,95.824760 
	C166.984711,90.793488 166.983948,85.699028 166.984909,80.604576 
	C166.985931,75.279060 167.172043,69.945107 166.927475,64.630936 
	C166.758362,60.956562 168.370407,60.147869 171.674103,60.149799 
	C174.976852,60.151730 176.143799,61.376064 175.940643,64.588623 
	C175.744110,67.696579 175.898056,70.826698 176.973450,74.444756 
	C179.055496,71.400833 181.478668,68.531326 183.143936,65.274307 
	C186.027267,59.635010 190.542450,59.678173 196.695038,60.778465 
	C193.735184,64.705963 191.452393,68.294029 188.601898,71.353096 
	C185.988235,74.158005 186.191681,76.502190 188.601044,79.473297 
z"/>
<path fill="#5C4C11" opacity="1.000000" stroke="none" 
	d="
M272.243378,60.268013 
	C272.743164,62.534855 272.802246,64.746391 272.752441,67.360939 
	C272.643524,67.763947 272.325836,67.829895 271.718597,67.842773 
	C267.077698,67.683556 263.044006,67.511452 259.170013,67.025955 
	C261.921661,66.481651 264.547546,66.432396 267.093903,65.957031 
	C268.838654,65.631325 270.472717,64.712593 272.156250,64.058960 
	C271.977081,63.395027 271.797913,62.731091 271.618744,62.067154 
	C265.249756,62.067154 258.873840,61.923714 252.519714,62.231041 
	C251.627792,62.274181 250.151428,64.507401 250.119614,65.756744 
	C249.904297,74.215775 249.834015,82.689804 250.178223,91.140182 
	C250.232864,92.481956 252.517242,94.703163 253.935028,94.842163 
	C258.702332,95.309578 263.550537,94.865364 268.354767,95.072540 
	C271.726624,95.217949 272.318420,93.509109 272.123138,90.587669 
	C272.725067,90.279457 273.174438,90.156197 273.623840,90.032928 
	C273.776367,96.081879 272.921387,97.086113 267.141449,97.072723 
	C261.228973,97.059029 255.316849,96.881798 249.160431,96.093643 
	C248.717667,94.255096 248.519058,93.099045 248.320435,91.943001 
	C248.292480,83.009071 248.371979,74.072922 248.186523,65.142258 
	C248.106201,61.273132 249.539047,59.863640 253.442886,60.050175 
	C259.551453,60.342052 265.681641,60.181568 272.243378,60.268013 
z"/>
<path fill="#715F21" opacity="1.000000" stroke="none" 
	d="
M273.711334,89.828506 
	C273.174438,90.156197 272.725067,90.279457 271.674377,90.634644 
	C267.825958,91.127953 264.570251,91.632927 261.336334,91.518898 
	C260.201294,91.478874 259.119873,89.919037 258.479553,89.037682 
	C263.929840,89.056084 268.914490,89.089996 273.899170,89.123901 
	C273.899170,89.123901 273.901093,89.157608 273.885681,89.171371 
	C273.870300,89.185135 273.798828,89.624084 273.711334,89.828506 
z"/>
<path fill="#8F7618" opacity="1.000000" stroke="none" 
	d="
M248.220978,92.301537 
	C248.519058,93.099045 248.717667,94.255096 248.859787,95.776367 
	C248.576035,94.981087 248.348770,93.820580 248.220978,92.301537 
z"/>
<path fill="#35332D" opacity="1.000000" stroke="none" 
	d="
M336.616089,64.555428 
	C336.547699,64.830597 336.195801,64.866806 335.577209,64.924759 
	C332.184143,64.990425 329.383820,64.779816 326.646576,65.103050 
	C325.383087,65.252258 324.242737,66.444611 323.046570,67.163994 
	C322.462952,67.610924 321.879364,68.057854 320.833984,68.807373 
	C317.944580,71.494186 318.938416,72.995491 321.648041,74.054047 
	C322.787140,74.147591 323.926208,74.241135 325.484314,74.423340 
	C328.596222,75.364944 331.289124,76.217903 333.981995,77.070862 
	C333.952911,77.657883 333.923828,78.244896 333.894714,78.831917 
	C331.003479,78.908279 328.110352,78.942154 325.221436,79.070580 
	C320.418701,79.284073 318.265289,83.060585 320.468994,88.043762 
	C321.423279,91.931541 323.961426,91.641907 326.789032,91.199348 
	C331.946411,90.392128 333.349274,90.773537 336.336426,93.970848 
	C329.194305,93.970848 322.864685,94.116470 316.557220,93.808960 
	C315.643860,93.764427 314.128418,91.566086 314.094788,90.331612 
	C313.873505,82.216187 314.047882,74.091011 313.955139,65.970596 
	C313.910309,62.045887 316.304199,61.801720 319.238586,62.007401 
	C324.165100,62.352722 329.095123,62.647713 334.715210,62.983864 
	C335.406708,63.003849 335.863708,63.037693 335.863708,63.037693 
	C335.863708,63.037693 336.208679,63.122505 336.384857,63.141617 
	C336.602173,63.533905 336.643311,63.907082 336.616089,64.555428 
z"/>
<path fill="#3B340D" opacity="1.000000" stroke="none" 
	d="
M335.814697,62.856964 
	C335.863708,63.037693 335.406708,63.003849 335.177612,62.987045 
	C335.220917,62.872238 335.493286,62.774239 335.814697,62.856964 
z"/>
<path fill="#D9B12D" opacity="1.000000" stroke="none" 
	d="
M259.010345,67.339355 
	C263.044006,67.511452 267.077698,67.683556 271.577576,67.922928 
	C270.588715,68.648407 269.188354,69.637657 267.666107,69.889252 
	C265.223328,70.292984 262.699921,70.208572 260.210571,70.330452 
	C260.181641,71.004875 260.152710,71.679291 260.123779,72.353714 
	C263.898010,72.726860 267.672241,73.100014 271.311218,73.816986 
	C270.419037,74.297371 269.662079,74.433937 268.459290,74.469315 
	C264.606934,74.251480 261.200470,74.134834 257.820129,73.593994 
	C257.662476,71.782333 257.478638,70.394882 257.570435,68.720573 
	C258.234192,68.068939 258.622253,67.704147 259.010345,67.339355 
z"/>
<path fill="#D9B12D" opacity="1.000000" stroke="none" 
	d="
M272.829376,75.046371 
	C275.398804,80.817398 273.587433,83.858398 267.509064,83.958611 
	C264.716766,84.004646 261.924042,84.023476 258.571899,83.744736 
	C257.927002,82.962181 257.841736,82.489532 258.130432,81.869850 
	C258.994934,81.511307 259.485535,81.299789 260.376587,81.294456 
	C262.562500,81.570412 264.352722,81.579437 266.132324,81.721603 
	C270.997986,82.110298 273.617279,80.302231 272.829376,75.046371 
z"/>
<path fill="#5C4C11" opacity="1.000000" stroke="none" 
	d="
M272.701080,74.877602 
	C273.617279,80.302231 270.997986,82.110298 266.132324,81.721603 
	C264.352722,81.579437 262.562500,81.570412 260.570221,81.017807 
	C262.475189,80.349709 264.618408,80.325623 266.687805,79.922447 
	C268.064240,79.654282 269.335205,78.844742 270.653381,78.277519 
	C270.070618,77.041847 269.487854,75.806175 268.905121,74.570511 
	C269.662079,74.433937 270.419037,74.297371 271.564941,74.145447 
	C272.179016,74.302849 272.385315,74.495766 272.701080,74.877602 
z"/>
<path fill="#D9B12D" opacity="1.000000" stroke="none" 
	d="
M273.652100,88.791977 
	C268.914490,89.089996 263.929840,89.056084 258.341736,88.800331 
	C257.633881,88.428635 257.529449,88.278793 257.619415,87.824661 
	C257.938934,87.314751 258.064056,87.109123 258.189178,86.903503 
	C263.261108,87.422348 268.333069,87.941193 273.652100,88.791977 
z"/>
<path fill="#715F21" opacity="1.000000" stroke="none" 
	d="
M258.130737,86.557632 
	C258.064056,87.109123 257.938934,87.314751 257.350952,87.677887 
	C257.177551,85.895897 257.467010,83.956390 257.756470,82.016876 
	C257.841736,82.489532 257.927002,82.962181 258.123230,83.779869 
	C258.180176,84.820518 258.126221,85.516144 258.130737,86.557632 
z"/>
<path fill="#4B401A" opacity="1.000000" stroke="none" 
	d="
M233.914932,88.992134 
	C233.557083,88.996704 233.199219,89.001274 232.574448,89.007324 
	C232.210770,88.187218 231.927811,87.337296 232.047836,86.548706 
	C232.764771,81.838402 230.322662,81.128265 226.250885,81.091293 
	C222.001221,81.052704 220.606934,82.580643 220.968613,86.633369 
	C221.229858,89.560539 221.019562,92.529800 221.019562,95.755486 
	C220.672516,95.864922 220.071106,96.190041 219.451584,96.229240 
	C212.227646,96.686264 212.216629,96.674881 212.208710,89.601662 
	C212.198318,80.314812 212.206161,71.027946 212.206161,61.449009 
	C215.286774,61.073864 218.021515,60.740837 221.116470,60.472397 
	C221.348038,64.667366 221.219376,68.797737 221.073364,73.432022 
	C221.056000,73.935928 220.925644,74.051758 220.655518,73.745354 
	C220.245026,70.962990 220.307281,68.450531 219.870926,66.027878 
	C219.679398,64.964523 218.625641,63.529934 217.683853,63.267651 
	C216.617081,62.970558 214.877426,63.450222 214.104630,64.246529 
	C213.466614,64.903969 213.611313,66.541382 213.765244,67.697121 
	C214.017746,69.592690 214.870148,71.441422 214.920868,73.324669 
	C215.082062,79.310837 214.875122,85.308472 215.116791,91.289299 
	C215.154007,92.210381 216.803848,93.066299 217.707901,93.952354 
	C218.462891,93.089149 219.769226,92.285141 219.869476,91.351624 
	C220.169907,88.553780 219.854691,85.693718 220.080811,82.882149 
	C220.175598,81.703667 220.707809,80.088173 221.588089,79.522537 
	C226.865860,76.131203 233.855881,79.867462 233.970947,85.998352 
	C233.989670,86.995575 233.935440,87.994171 233.914932,88.992134 
z"/>
<path fill="#4B401A" opacity="1.000000" stroke="none" 
	d="
M232.762161,61.141563 
	C233.134872,62.656681 233.270782,64.081833 233.684921,66.188492 
	C233.347870,69.285957 232.732590,71.701927 232.053894,74.053055 
	C231.990448,73.988228 231.864868,73.857315 231.864868,73.857315 
	C231.917908,69.884796 231.970932,65.912270 232.021851,61.479855 
	C232.188293,61.030506 232.356842,61.041050 232.762161,61.141563 
z"/>
<path fill="#363431" opacity="1.000000" stroke="none" 
	d="
M117.964661,66.298080 
	C119.160362,64.885094 120.351242,63.937115 121.542114,62.989136 
	C122.362305,64.145172 123.861893,65.283211 123.893059,66.460136 
	C124.104622,74.448433 124.126930,82.448662 123.880081,90.434830 
	C123.842453,91.652260 122.289993,93.539238 121.099289,93.860489 
	C118.335052,94.606293 117.934265,92.516533 117.949066,90.244949 
	C118.000069,82.417976 117.963219,74.590416 117.964661,66.298080 
z"/>
<path fill="#A0841D" opacity="1.000000" stroke="none" 
	d="
M125.037399,61.453949 
	C125.050888,60.984592 125.523331,60.995167 125.759491,61.001793 
	C125.951439,67.483833 125.907227,73.959244 125.659225,80.800301 
	C125.311592,74.751732 125.167755,68.337517 125.037399,61.453949 
z"/>
<path fill="#4B401A" opacity="1.000000" stroke="none" 
	d="
M221.118317,73.874954 
	C224.447464,73.864578 227.714294,73.915192 231.423004,73.911560 
	C231.864868,73.857315 231.990448,73.988228 231.918030,74.424164 
	C228.087036,76.192604 224.323151,77.596947 220.925644,74.051758 
	C220.925644,74.051758 221.056000,73.935928 221.118317,73.874954 
z"/>
<path fill="#383630" opacity="1.000000" stroke="none" 
	d="
M220.655518,73.745354 
	C224.323151,77.596947 228.087036,76.192604 231.981476,74.488991 
	C232.732590,71.701927 233.347870,69.285957 233.940491,66.439270 
	C233.785782,63.175591 235.635681,62.409916 237.725800,63.176750 
	C238.767807,63.559052 239.862106,65.440041 239.893112,66.669350 
	C240.088684,74.418503 240.128860,82.179672 239.865845,89.924835 
	C239.818909,91.307159 238.348114,93.490135 237.133041,93.818970 
	C233.940521,94.682938 233.917511,92.094658 233.939514,89.419571 
	C233.935440,87.994171 233.989670,86.995575 233.970947,85.998352 
	C233.855881,79.867462 226.865860,76.131203 221.588089,79.522537 
	C220.707809,80.088173 220.175598,81.703667 220.080811,82.882149 
	C219.854691,85.693718 220.169907,88.553780 219.869476,91.351624 
	C219.769226,92.285141 218.462891,93.089149 217.707901,93.952354 
	C216.803848,93.066299 215.154007,92.210381 215.116791,91.289299 
	C214.875122,85.308472 215.082062,79.310837 214.920868,73.324669 
	C214.870148,71.441422 214.017746,69.592690 213.765244,67.697121 
	C213.611313,66.541382 213.466614,64.903969 214.104630,64.246529 
	C214.877426,63.450222 216.617081,62.970558 217.683853,63.267651 
	C218.625641,63.529934 219.679398,64.964523 219.870926,66.027878 
	C220.307281,68.450531 220.245026,70.962990 220.655518,73.745354 
z"/>
<path fill="#3B340D" opacity="1.000000" stroke="none" 
	d="
M323.209930,67.221352 
	C324.242737,66.444611 325.383087,65.252258 326.646576,65.103050 
	C329.383820,64.779816 332.184143,64.990425 335.405701,64.968109 
	C335.868225,65.358620 335.883667,65.763741 335.832825,66.463379 
	C332.066101,66.847816 328.365662,66.937729 324.191162,67.132660 
	C323.717072,67.237679 323.373291,67.278709 323.209930,67.221352 
z"/>
<path fill="#615018" opacity="1.000000" stroke="none" 
	d="
M321.695923,73.678711 
	C318.938416,72.995491 317.944580,71.494186 320.724884,69.072891 
	C321.299652,70.458328 321.521729,71.880852 321.695923,73.678711 
z"/>
<path fill="#3D3727" opacity="1.000000" stroke="none" 
	d="
M87.753731,63.363976 
	C88.836060,62.851665 89.715202,62.687244 90.805710,62.256615 
	C91.721130,61.961475 92.425186,61.932549 93.479630,61.904388 
	C94.222244,63.766056 94.857552,65.613312 94.962936,67.490318 
	C95.339905,74.204422 95.537201,80.928619 96.151505,87.754227 
	C99.825012,88.300529 103.139359,88.992210 106.476204,89.127151 
	C112.277649,89.361763 112.283478,89.217621 110.895782,95.452148 
	C103.501579,95.867653 96.223358,95.923264 88.477219,95.981125 
	C88.009300,95.983368 87.699409,95.799431 87.525635,95.753227 
	C87.418091,85.041977 87.484314,74.376923 87.753731,63.363976 
z"/>
<path fill="#C09C19" opacity="1.000000" stroke="none" 
	d="
M97.025696,87.234375 
	C97.457329,87.034668 97.707642,87.229668 97.983429,87.756042 
	C98.098671,87.972153 97.625885,88.036804 97.388321,88.048721 
	C97.078552,87.878372 97.006348,87.696106 97.025696,87.234375 
z"/>
<path fill="#CFA92A" opacity="1.000000" stroke="none" 
	d="
M84.865150,70.797455 
	C84.942184,70.952736 84.488930,70.961967 84.262825,70.956604 
	C84.287186,70.848221 84.537651,70.745193 84.865150,70.797455 
z"/>
<path fill="#353427" opacity="1.000000" stroke="none" 
	d="
M258.130432,81.869850 
	C257.467010,83.956390 257.177551,85.895897 257.156555,87.982178 
	C257.529449,88.278793 257.633881,88.428635 257.876129,88.815834 
	C259.119873,89.919037 260.201294,91.478874 261.336334,91.518898 
	C264.570251,91.632927 267.825958,91.127953 271.521851,90.819580 
	C272.318420,93.509109 271.726624,95.217949 268.354767,95.072540 
	C263.550537,94.865364 258.702332,95.309578 253.935028,94.842163 
	C252.517242,94.703163 250.232864,92.481956 250.178223,91.140182 
	C249.834015,82.689804 249.904297,74.215775 250.119614,65.756744 
	C250.151428,64.507401 251.627792,62.274181 252.519714,62.231041 
	C258.873840,61.923714 265.249756,62.067154 271.618744,62.067154 
	C271.797913,62.731091 271.977081,63.395027 272.156250,64.058960 
	C270.472717,64.712593 268.838654,65.631325 267.093903,65.957031 
	C264.547546,66.432396 261.921661,66.481651 259.170013,67.025955 
	C258.622253,67.704147 258.234192,68.068939 257.292603,68.851395 
	C257.090698,70.852097 257.442352,72.435143 257.793976,74.018188 
	C261.200470,74.134834 264.606934,74.251480 268.459290,74.469315 
	C269.487854,75.806175 270.070618,77.041847 270.653381,78.277519 
	C269.335205,78.844742 268.064240,79.654282 266.687805,79.922447 
	C264.618408,80.325623 262.475189,80.349709 260.169739,80.811615 
	C259.485535,81.299789 258.994934,81.511307 258.130432,81.869850 
z"/>
<path fill="#5C4C11" opacity="1.000000" stroke="none" 
	d="
M257.820129,73.593987 
	C257.442352,72.435143 257.090698,70.852097 257.016937,69.138245 
	C257.478638,70.394882 257.662476,71.782333 257.820129,73.593987 
z"/>
</svg>