<svg width="30" height="30" viewBox="0 0 30 30" fill="#fff" xmlns="http://www.w3.org/2000/svg">
<path d="M23.4484 0.665091C23.1708 0.790806 22.888 1.12604 22.7727 1.47176C22.7203 1.6289 22.668 1.96414 22.6523 2.27843C22.6365 2.72367 22.647 2.87557 22.7413 3.17938C22.9508 3.87081 23.4694 4.50463 24.4227 5.22748C25.3446 5.92939 25.6275 6.34844 25.6694 7.0713C25.727 8.05083 25.3708 8.70559 24.5642 9.10369C24.1346 9.31321 23.8308 9.34988 23.1708 9.26083C22.7256 9.20321 22.6261 9.20321 22.3694 9.28178C22.207 9.32892 22.0184 9.36559 21.9503 9.36559C21.877 9.36559 21.4527 9.14035 20.997 8.86797C19.5618 8.00892 19.0903 7.87797 17.4299 7.87273C16.1046 7.87273 15.7641 7.92511 14.6746 8.29702C13.9675 8.53797 13.7475 8.63226 12.0608 9.45988C11.4689 9.74797 10.8194 10.0361 10.6203 10.0937C10.0441 10.277 9.33174 10.3608 8.40983 10.3608C7.45649 10.3608 7.35173 10.3923 7.45649 10.6646C7.48792 10.7432 7.5403 10.8427 7.57697 10.8846C7.72887 11.0627 7.72364 11.0889 7.51935 11.0313C7.40935 11.0051 7.28364 10.9475 7.24173 10.9108C7.01649 10.7118 6.16268 10.6751 5.53411 10.8323C4.46553 11.1099 3.48077 12.0265 3.09839 13.1161C2.97267 13.467 2.96743 13.7551 3.08267 13.8023C3.13505 13.818 3.32886 13.7551 3.54362 13.6504C3.74791 13.5508 3.9941 13.4461 4.08315 13.4304C4.29791 13.3832 4.30315 13.4146 4.12505 13.9542C3.96267 14.457 3.9522 14.8027 4.1041 14.9913C4.16172 15.0647 4.24553 15.1275 4.28744 15.1275C4.32934 15.1275 4.59125 14.9127 4.86887 14.6561C5.21458 14.3313 5.41363 14.1847 5.49744 14.1847C5.58125 14.1847 5.61792 14.2056 5.59696 14.2475C5.39268 14.7399 5.35077 15.4575 5.51839 15.5623C5.61268 15.6199 5.65458 15.6042 6.32506 15.2113C6.88554 14.8813 7.70268 14.6456 8.54078 14.567C8.80269 14.5408 8.83935 14.5566 9.14316 14.7608C9.32126 14.8813 9.6565 15.0699 9.89221 15.1851C10.4055 15.4313 11.6836 15.8608 12.4013 16.018C12.6894 16.0861 12.946 16.1542 12.967 16.1751C13.0298 16.2328 12.5898 16.788 12.1079 17.2594C11.4532 17.8985 10.6936 18.4904 10.3375 18.6266C9.78221 18.8413 9.50459 19.1661 9.36316 19.7632C9.31602 19.9623 9.15888 20.2347 8.73459 20.8423C8.4203 21.2875 7.91745 21.9999 7.61887 22.4347C6.24649 24.3937 6.30411 24.3309 5.75935 24.4513C5.40315 24.5299 5.03649 24.729 4.84268 24.9437C4.64887 25.1637 4.54934 25.4675 4.62791 25.609C4.68553 25.7242 4.7641 25.7294 4.96839 25.6561C5.15696 25.5828 5.17792 25.6194 5.04696 25.8028C4.86363 26.0647 4.57553 26.7037 4.51791 26.9971C4.47601 27.2066 4.47601 27.3533 4.51791 27.5628C4.57553 27.8456 4.72744 28.0552 4.82696 27.9871C4.85839 27.9714 4.97887 27.7618 5.09934 27.5261C5.3403 27.039 5.50792 26.819 6.14697 26.1537C6.39316 25.8918 6.72316 25.4833 6.87506 25.2371C7.34649 24.4775 8.01697 23.5452 9.12221 22.1204C10.1489 20.7951 10.327 20.5856 10.5575 20.4966C11.0027 20.3185 11.3536 19.9518 11.4532 19.559C11.5108 19.3442 11.5736 19.2866 12.7051 18.4328L13.9046 17.5318L14.5594 17.2961C14.9208 17.1704 15.2351 17.0656 15.2613 17.0656C15.3189 17.0656 15.1565 17.4428 15.0727 17.5108C15.0308 17.537 14.8841 17.8775 14.7375 18.2599C14.4441 19.0247 14.4022 19.3442 14.5541 19.6637C14.6013 19.758 14.7165 19.889 14.8108 19.9466C15.0779 20.1142 15.3398 20.0828 15.7379 19.8418C15.9999 19.6847 16.4922 19.5066 17.828 19.0875C20.227 18.3385 20.3108 18.3123 20.5622 18.3332L20.7822 18.3489L20.8399 18.6737C20.908 19.0509 21.0232 19.2499 21.2118 19.3232C21.4161 19.4018 21.4999 19.3023 21.4632 19.0089C21.4108 18.5899 21.4842 18.5899 21.9137 19.0194C22.317 19.4228 22.647 19.6323 22.8775 19.6323C23.0556 19.6323 23.0975 19.5066 22.9875 19.2813C22.7884 18.857 21.7775 17.3642 21.6046 17.2332C21.437 17.1023 21.3794 17.0918 20.9446 17.0918C20.4261 17.0918 20.6565 17.0289 17.2465 18.108C16.597 18.3175 16.0208 18.4956 15.9684 18.5113C15.8375 18.5532 15.8689 18.4747 16.1675 18.0189C16.3456 17.7518 16.4713 17.6261 16.6546 17.5213C17.0318 17.317 17.3513 17.0761 17.3513 16.9923C17.3513 16.9504 17.4089 16.8456 17.4822 16.7618L17.608 16.6099L18.488 16.5785C20.227 16.5104 21.3008 16.2013 22.1808 15.5047C22.9456 14.9075 23.2651 14.1218 23.2703 12.8437C23.2703 12.4194 23.2913 12.1889 23.3384 12.1313C23.3699 12.0894 23.6475 11.9008 23.9513 11.7175C25.3132 10.8899 25.9942 10.1985 26.5599 9.07749C26.9475 8.30225 27.0837 7.32796 26.9161 6.54225C26.7223 5.62558 26.2665 5.01272 25.1246 4.13272C24.4123 3.58272 24.2603 3.40986 24.2289 3.11129C24.1975 2.83367 24.2656 2.77605 24.8156 2.61891C25.1037 2.54033 25.3761 2.51414 26.0465 2.50891C27.1256 2.49319 27.267 2.41462 26.5808 2.21557C26.4027 2.16319 26.2718 2.10033 26.2927 2.07938C26.3137 2.05843 26.4761 2.03224 26.6489 2.02176C26.8846 2.01128 26.9632 1.98509 26.9632 1.92747C26.9632 1.86986 26.7223 1.77033 26.1513 1.58176C25.4913 1.367 25.2556 1.26224 24.9204 1.037C24.2499 0.581282 23.8518 0.481756 23.4484 0.665091Z" fill="url(#nostr)"></path>
<defs>
<linearGradient id="nostr" x1="3" y1="9.42202" x2="28.3351" y2="12.0625" gradientUnits="userSpaceOnUse">
<stop stop-color="#fff"></stop>
<stop offset="0.623836" stop-color="#fff"></stop>
<stop offset="1" stop-color="#fff"></stop>
</linearGradient>
</defs>
</svg>